<svg width="100" height="95" viewBox="0 0 100 95" fill="none" xmlns="http://www.w3.org/2000/svg">
<path d="M95.8997 48.9416C92.7378 43.4649 88.1368 39.3369 82.8492 36.7598C82.1727 40.3718 80.8927 43.9322 78.9534 47.2919L75.8932 52.6024C77.9314 53.7347 79.7059 55.4017 80.9572 57.5689C84.6337 63.9357 82.4507 72.0799 76.0824 75.7564C69.7156 79.4329 61.5713 77.2514 57.8948 70.8831L51.72 60.2048H41.7555L36.7732 68.8334L42.9523 79.5103C51.3947 94.1317 70.0897 99.1412 84.7111 90.6989C99.3311 82.258 104.341 63.5631 95.8997 48.9416Z" fill="#70CAF2"/>
<path d="M65.282 4.10025C50.6605 -4.34063 31.9655 0.668858 23.5246 15.2888C20.3612 20.7656 19.0884 26.8142 19.4998 32.6823C22.9656 31.4625 26.6894 30.7903 30.5694 30.7903L36.697 30.7846C36.6583 28.454 37.2158 26.0832 38.4657 23.9175C42.1436 17.5492 50.2864 15.3662 56.6547 19.0442C63.023 22.7207 65.2046 30.8634 61.5281 37.2317L55.369 47.9186L60.3499 56.5487L70.3144 56.5473L76.4706 45.8575C84.9129 31.2375 79.9034 12.5411 65.282 4.10025Z" fill="#B4E3F9"/>
<path d="M40.4717 80.9447L37.4015 75.6399C35.402 76.8396 33.0714 77.5419 30.5702 77.5419C23.2157 77.5419 17.2545 71.5807 17.2545 64.2263C17.2545 56.8733 23.2157 50.9121 30.5702 50.9121L42.904 50.9035L47.8877 42.2748L42.904 33.6462L30.5688 33.6576C13.6855 33.6576 0 47.3445 0 64.2263C0 81.1095 13.6855 94.7964 30.5688 94.7964C36.8912 94.7964 42.7636 92.8757 47.6383 89.5891C44.8491 87.1969 42.411 84.303 40.4717 80.9447Z" fill="#3F79AD"/>
</svg>
