<?xml version="1.0" encoding="UTF-8" standalone="no"?>
<svg
   version="1.1"
   id="svg2"
   xml:space="preserve"
   viewBox="0 0 473.33334 180"
   xmlns="http://www.w3.org/2000/svg"
   xmlns:svg="http://www.w3.org/2000/svg"><defs
     id="defs6"><clipPath
       clipPathUnits="userSpaceOnUse"
       id="clipPath16"><path
         d="M 0,135 H 355 V 0 H 0 Z"
         id="path14" /></clipPath></defs><g
     id="g8"
     transform="matrix(1.3333333,0,0,-1.3333333,0,180)"><g
       id="g10"><g
         id="g12"
         clip-path="url(#clipPath16)"><g
           id="g18"
           transform="translate(268.92,82.6478)"><path
             d="m 0,0 h -23.528 c 0.539,3.053 2.155,5.208 4.131,6.645 2.155,1.617 5.029,2.156 7.723,2.156 2.873,0 5.568,-0.719 7.723,-2.156 C -2.155,5.388 -0.718,3.233 0,0 m 0.359,10.597 c -3.592,2.873 -8.261,3.771 -12.213,3.771 -5.927,0 -10.417,-1.975 -13.47,-5.208 -2.874,-3.233 -4.31,-7.544 -4.31,-12.034 0,-3.951 1.077,-8.261 3.951,-11.674 2.873,-3.412 7.364,-5.747 13.829,-5.747 5.209,0 9.34,1.437 12.034,3.592 2.873,2.155 4.49,5.029 5.388,7.902 l 0.359,1.078 H 4.849 -0.18 l -0.179,-0.539 c -0.719,-2.335 -1.796,-3.771 -3.592,-5.029 -1.796,-1.077 -4.311,-1.616 -7.903,-1.616 -3.771,0 -6.645,1.257 -8.621,3.233 -1.796,1.796 -2.873,4.131 -3.053,6.825 H 6.466 v 0.898 c 0,7.004 -2.515,11.854 -6.107,14.548"
             style="fill:#0b73b8;fill-opacity:1;fill-rule:nonzero;stroke:none"
             id="path20" /></g><g
           id="g22"
           transform="translate(304.4813,67.3815)"><path
             d="m 0,0 h -0.898 -18.858 c 0.539,0.539 1.077,1.257 2.155,2.155 1.796,1.257 4.49,3.053 8.621,5.209 2.335,1.257 4.31,2.514 5.927,4.31 1.616,1.796 2.514,3.951 2.514,7.005 0,2.514 -0.898,5.388 -2.873,7.363 -1.976,2.156 -5.209,3.413 -9.699,3.413 -4.31,0 -7.543,-1.078 -9.878,-3.233 -2.335,-2.155 -3.413,-5.388 -3.413,-9.339 v -0.36 -0.898 h 5.748 v 1.078 c 0,1.796 0.359,3.592 1.437,5.029 1.077,1.437 2.694,2.514 6.286,2.514 2.514,0 4.13,-0.538 5.208,-1.436 1.078,-0.898 1.616,-2.156 1.616,-4.311 0,-1.976 -0.538,-3.053 -1.796,-4.31 -1.436,-1.258 -3.771,-2.694 -7.184,-4.49 -5.029,-2.515 -7.723,-5.029 -9.519,-7.185 -1.616,-2.334 -2.155,-4.49 -2.334,-6.286 v -0.359 l -0.18,-0.898 H 0 Z"
             style="fill:#0b73b8;fill-opacity:1;fill-rule:nonzero;stroke:none"
             id="path24" /></g><g
           id="g26"
           transform="translate(226.6159,96.099)"><path
             d="m 0,0 c -0.13,-0.001 -0.273,-0.001 -0.435,-0.001 h -1.023 v 1.696 h 1.087 0.32 0.672 C 0.844,1.661 1.004,1.565 1.132,1.406 1.261,1.277 1.324,1.086 1.324,0.862 1.324,0.67 1.261,0.479 1.164,0.35 1.1,0.222 0.974,0.126 0.78,0.063 0.659,0.033 0.386,0.002 0,0 m 1.676,-1.505 c -0.191,0.224 -0.447,0.384 -0.736,0.576 0.609,0.096 1.055,0.288 1.344,0.608 0.288,0.352 0.447,0.767 0.447,1.279 0,0.384 -0.095,0.737 -0.288,1.055 C 2.22,2.334 1.964,2.558 1.644,2.685 1.324,2.781 0.78,2.845 0.076,2.845 h -0.127 -2.75 v -6.781 h 1.343 v 2.846 h 0.286 c 0.322,0 0.545,-0.031 0.705,-0.095 0.128,-0.033 0.256,-0.127 0.384,-0.256 C 0.045,-1.6 0.3,-1.921 0.653,-2.464 l 0.991,-1.472 h 1.632 l -0.833,1.343 c -0.32,0.513 -0.575,0.896 -0.767,1.088"
             style="fill:#0b73b8;fill-opacity:1;fill-rule:nonzero;stroke:none"
             id="path28" /></g><g
           id="g30"
           transform="translate(230.2429,91.8113)"><path
             d="m 0,0 c -0.959,-0.959 -2.271,-1.503 -3.743,-1.503 -1.439,0 -2.782,0.544 -3.741,1.503 -0.961,0.96 -1.536,2.302 -1.536,3.742 0,1.472 0.575,2.783 1.536,3.742 0.959,0.96 2.302,1.568 3.741,1.568 C -2.271,9.052 -0.959,8.444 0,7.484 0.958,6.525 1.567,5.214 1.567,3.742 1.567,2.302 0.958,0.96 0,0 m 0.958,8.444 c -1.213,1.183 -2.878,1.919 -4.701,1.919 -1.823,0 -3.486,-0.736 -4.668,-1.919 -1.216,-1.215 -1.952,-2.879 -1.952,-4.702 0,-1.822 0.736,-3.454 1.952,-4.67 1.182,-1.182 2.845,-1.918 4.668,-1.918 1.823,0 3.488,0.736 4.67,1.918 1.216,1.184 1.952,2.848 1.952,4.67 0,1.823 -0.736,3.487 -1.921,4.702"
             style="fill:#0b73b8;fill-opacity:1;fill-rule:nonzero;stroke:none"
             id="path32" /></g><g
           id="g34"
           transform="translate(47.2134,103.9356)"><path
             d="M 0,0 C -0.899,-0.848 -1.347,-1.878 -1.347,-3.091 V -40.434 H 7.758 V 1.273 H 3.269 C 1.988,1.273 0.897,0.85 0,0"
             style="fill:#0b73b8;fill-opacity:1;fill-rule:nonzero;stroke:none"
             id="path36" /></g><g
           id="g38"
           transform="translate(84.0306,74.1712)"><path
             d="m 0,0 c -1.968,-2.103 -5.046,-3.154 -9.233,-3.154 h -7.31 v 26.918 h 8.463 c 3.762,0 6.497,-1.092 8.208,-3.273 C 1.923,18.307 2.82,14.871 2.82,10.184 2.82,5.334 1.88,1.94 0,0 m -8.08,31.038 h -12.695 c -1.281,0 -2.372,-0.424 -3.269,-1.274 -0.898,-0.848 -1.347,-1.878 -1.347,-3.091 v -37.342 h 14.875 c 4.188,0 7.31,0.281 9.361,0.848 2.137,0.565 4.147,1.535 6.028,2.909 2.222,1.617 4.017,3.959 5.386,7.032 1.195,2.991 1.795,6.345 1.795,10.064 0,6.951 -1.667,12.204 -5.002,15.761 -3.333,3.396 -8.378,5.093 -15.132,5.093"
             style="fill:#0b73b8;fill-opacity:1;fill-rule:nonzero;stroke:none"
             id="path40" /></g><g
           id="g42"
           transform="translate(115.8326,95.7523)"><path
             d="m 0,0 c -2.307,0 -4.552,-0.285 -6.732,-0.849 -2.18,-0.567 -4.083,-1.455 -5.706,-2.667 -1.712,-1.293 -3.058,-3.012 -4.039,-5.152 -0.984,-2.144 -1.475,-4.791 -1.475,-7.943 V -32.25 h 8.976 v 16.608 c 0,2.427 0.598,4.204 1.796,5.337 1.196,1.131 3.034,1.697 5.514,1.697 H 1.283 L 1.283,0 H 0.642 Z"
             style="fill:#0b73b8;fill-opacity:1;fill-rule:nonzero;stroke:none"
             id="path44" /></g><g
           id="g46"
           transform="translate(124.4934,95.7523)"><path
             d="m 0,0 h -4.616 v -32.25 h 8.977 v 28.128 c 0,1.131 -0.429,2.101 -1.282,2.91 C 2.222,-0.406 1.196,0 0,0"
             style="fill:#0b73b8;fill-opacity:1;fill-rule:nonzero;stroke:none"
             id="path48" /></g><g
           id="g50"
           transform="translate(156.7491,95.7523)"><path
             d="M 0,0 C -2.051,0 -3.422,-0.97 -4.104,-2.91 L -10.13,-22.673 -16.927,0 h -9.49 l 11.926,-32.25 h 9.104 L 6.668,0 Z"
             style="fill:#0b73b8;fill-opacity:1;fill-rule:nonzero;stroke:none"
             id="path52" /></g><g
           id="g54"
           transform="translate(123.9243,107.504)"><path
             d="m 0,0 c -2.723,0 -4.929,-2.086 -4.929,-4.661 0,-2.574 2.206,-4.66 4.929,-4.66 2.723,0 4.93,2.086 4.93,4.66 C 4.93,-2.086 2.723,0 0,0"
             style="fill:#0b73b8;fill-opacity:1;fill-rule:nonzero;stroke:none"
             id="path56" /></g><g
           id="g58"
           transform="translate(213.0013,113.7477)"><path
             d="m 0,0 c -2.845,4.959 -7.049,8.181 -12.613,9.666 -5.563,1.486 -10.799,0.78 -15.784,-2.064 -4.958,-2.87 -8.18,-7.099 -9.666,-12.662 -0.226,-0.856 -0.403,-1.712 -0.554,-2.543 2.947,1.51 5.866,2.216 8.71,2.09 1.058,2.567 2.87,4.581 5.388,6.067 3.07,1.762 6.343,2.19 9.793,1.283 3.448,-0.931 6.066,-2.919 7.828,-5.991 1.46,-2.517 1.989,-5.135 1.662,-7.905 2.367,-1.309 4.506,-3.449 6.445,-6.368 0.328,0.83 0.628,1.686 0.907,2.593 C 3.574,-10.271 2.894,-4.985 0,0"
             style="fill:#0b73b8;fill-opacity:1;fill-rule:evenodd;stroke:none"
             id="path60" /></g><g
           id="g62"
           transform="translate(204.4005,78.9464)"><path
             d="M 0,0 V -0.485 C 0,-0.89 -0.042,-1.173 -0.126,-1.334 h -22.186 c 0.083,-2.506 0.725,-4.365 1.924,-5.577 1.109,-1.294 2.778,-1.94 5.001,-1.94 1.453,0 2.693,0.282 3.718,0.848 0.257,0.08 0.491,0.222 0.707,0.425 0.212,0.201 0.447,0.425 0.704,0.667 0.085,0.242 0.405,0.565 0.963,0.969 0.555,0.404 1.345,0.606 2.372,0.606 h 6.411 c -0.941,-3.393 -2.737,-5.982 -5.386,-7.759 -2.65,-1.86 -5.985,-2.789 -10.003,-2.789 -4.872,0 -8.677,1.495 -11.414,4.487 -2.734,2.909 -4.102,7.072 -4.102,12.488 0,5.171 1.325,9.215 3.975,12.124 2.735,2.99 6.54,4.486 11.413,4.486 5.13,0 9.106,-1.454 11.926,-4.364 C -1.368,10.345 0,6.184 0,0.848 Z m 8.524,13.756 c -0.15,0.302 -0.301,0.604 -0.478,0.881 -0.175,0.327 -0.352,0.63 -0.552,0.906 -1.259,1.913 -2.846,3.424 -4.733,4.532 -1.158,0.705 -2.417,1.208 -3.802,1.56 l -17.118,4.607 c -1.335,0.352 -2.643,0.529 -3.928,0.529 -2.593,0.025 -5.06,-0.63 -7.476,-2.039 -0.227,-0.126 -0.453,-0.277 -0.654,-0.429 -1.158,-0.729 -2.14,-1.535 -2.996,-2.491 -1.586,-1.687 -2.694,-3.752 -3.322,-6.168 l -4.582,-17.118 c -1.083,-3.978 -0.579,-7.779 1.484,-11.354 2.066,-3.599 5.111,-5.941 9.114,-6.998 l 17.143,-4.607 c 3.977,-1.057 7.754,-0.529 11.328,1.535 3.6,2.064 5.941,5.086 7.024,9.063 L 9.557,3.283 c 0.957,3.676 0.629,7.15 -1.033,10.473"
             style="fill:#0b73b8;fill-opacity:1;fill-rule:evenodd;stroke:none"
             id="path64" /></g><g
           id="g66"
           transform="translate(188.6292,89.6158)"><path
             d="M 0,0 C -1.882,0 -3.42,-0.566 -4.617,-1.697 -5.816,-2.831 -6.458,-4.447 -6.54,-6.548 H 6.539 C 6.367,-4.365 5.77,-2.749 4.744,-1.697 3.632,-0.566 2.049,0 0,0"
             style="fill:#0b73b8;fill-opacity:1;fill-rule:evenodd;stroke:none"
             id="path68" /></g><g
           id="g70"
           transform="translate(22.5654,17.21)"><path
             d="M 0,0 H -2.707 V 6.939 H -9.7 V 0 h -2.718 V 15.641 H -9.7 v -6.51 h 6.993 v 6.51 H 0 Z"
             style="fill:#0b73b8;fill-opacity:1;fill-rule:nonzero;stroke:none"
             id="path72" /></g><g
           id="g74"
           transform="translate(27.6465,22.9033)"><path
             d="m 0,0 c 0,-1.196 0.247,-2.133 0.741,-2.809 0.494,-0.677 1.182,-1.015 2.063,-1.015 0.881,0 1.566,0.344 2.057,1.031 0.49,0.688 0.736,1.693 0.736,3.019 C 5.597,1.4 5.344,2.331 4.839,3.019 4.334,3.706 3.648,4.05 2.782,4.05 1.93,4.05 1.253,3.711 0.752,3.035 0.25,2.357 0,1.347 0,0 m -2.61,0.226 c 0,1.138 0.225,2.165 0.676,3.077 0.452,0.914 1.085,1.615 1.902,2.105 C 0.784,5.899 1.722,6.145 2.782,6.145 4.351,6.145 5.624,5.64 6.601,4.63 7.579,3.62 8.106,2.281 8.186,0.612 L 8.196,0 c 0,-1.146 -0.22,-2.17 -0.66,-3.072 C 7.095,-3.975 6.465,-4.673 5.645,-5.167 4.825,-5.661 3.878,-5.908 2.804,-5.908 c -1.64,0 -2.953,0.546 -3.937,1.638 -0.985,1.092 -1.477,2.547 -1.477,4.367 z"
             style="fill:#0b73b8;fill-opacity:1;fill-rule:nonzero;stroke:none"
             id="path76" /></g><g
           id="g78"
           transform="translate(41.3213,31.6582)"><path
             d="M 0,0 V -2.825 H 2.052 V -4.759 H 0 v -6.488 c 0,-0.444 0.087,-0.765 0.263,-0.961 0.175,-0.197 0.489,-0.296 0.94,-0.296 0.301,0 0.605,0.036 0.913,0.108 v -2.02 c -0.595,-0.165 -1.167,-0.247 -1.719,-0.247 -2.005,0 -3.007,1.106 -3.007,3.319 v 6.585 h -1.912 v 1.934 h 1.912 l 0,2.825 z"
             style="fill:#0b73b8;fill-opacity:1;fill-rule:nonzero;stroke:none"
             id="path80" /></g><g
           id="g82"
           transform="translate(59.2715,21.2383)"><path
             d="m 0,0 c 0,0.687 -0.242,1.218 -0.725,1.59 -0.483,0.372 -1.356,0.748 -2.616,1.128 -1.261,0.38 -2.263,0.802 -3.008,1.267 -1.425,0.896 -2.137,2.063 -2.137,3.502 0,1.261 0.513,2.299 1.541,3.116 1.028,0.816 2.362,1.224 4.002,1.224 1.088,0 2.058,-0.2 2.911,-0.601 C 0.82,10.824 1.489,10.253 1.977,9.513 2.463,8.771 2.707,7.949 2.707,7.047 H 0 c 0,0.816 -0.256,1.456 -0.768,1.917 -0.512,0.463 -1.245,0.693 -2.197,0.693 -0.888,0 -1.577,-0.189 -2.068,-0.569 -0.49,-0.38 -0.736,-0.909 -0.736,-1.59 0,-0.573 0.265,-1.051 0.795,-1.435 C -4.444,5.681 -3.57,5.309 -2.353,4.946 -1.135,4.585 -0.158,4.173 0.58,3.712 1.317,3.249 1.858,2.72 2.202,2.122 2.546,1.523 2.718,0.823 2.718,0.021 c 0,-1.303 -0.5,-2.339 -1.499,-3.11 -0.999,-0.769 -2.354,-1.154 -4.066,-1.154 -1.132,0 -2.172,0.209 -3.12,0.629 -0.95,0.418 -1.687,0.997 -2.213,1.734 -0.527,0.737 -0.79,1.597 -0.79,2.578 h 2.718 c 0,-0.887 0.294,-1.575 0.881,-2.062 0.587,-0.488 1.429,-0.731 2.524,-0.731 0.946,0 1.656,0.192 2.133,0.574 C -0.238,-1.137 0,-0.63 0,0"
             style="fill:#0b73b8;fill-opacity:1;fill-rule:nonzero;stroke:none"
             id="path84" /></g><g
           id="g86"
           transform="translate(66.9736,26.2227)"><path
             d="M 0,0 H 1.59 C 2.392,0.007 3.027,0.215 3.497,0.623 3.965,1.031 4.2,1.622 4.2,2.396 4.2,3.141 4.005,3.719 3.615,4.13 3.224,4.542 2.628,4.748 1.826,4.748 1.124,4.748 0.548,4.546 0.097,4.142 -0.354,3.736 -0.58,3.208 -0.58,2.557 h -2.61 c 0,0.801 0.212,1.532 0.639,2.191 0.426,0.659 1.02,1.173 1.783,1.542 0.763,0.368 1.617,0.553 2.562,0.553 1.561,0 2.788,-0.393 3.679,-1.176 C 6.365,4.882 6.811,3.792 6.811,2.396 6.811,1.693 6.586,1.033 6.139,0.413 5.691,-0.206 5.113,-0.673 4.404,-0.988 c 0.86,-0.294 1.513,-0.756 1.961,-1.386 0.447,-0.63 0.671,-1.382 0.671,-2.256 0,-1.403 -0.482,-2.52 -1.445,-3.351 -0.963,-0.832 -2.229,-1.247 -3.797,-1.247 -1.504,0 -2.736,0.402 -3.695,1.204 -0.96,0.801 -1.44,1.869 -1.44,3.201 h 2.611 c 0,-0.688 0.23,-1.246 0.692,-1.676 0.462,-0.43 1.083,-0.645 1.864,-0.645 0.809,0 1.446,0.215 1.912,0.645 0.466,0.43 0.699,1.053 0.699,1.869 0,0.823 -0.244,1.457 -0.731,1.901 -0.487,0.445 -1.21,0.666 -2.17,0.666 l -1.536,0 z"
             style="fill:#0b73b8;fill-opacity:1;fill-rule:nonzero;stroke:none"
             id="path88" /></g><g
           id="g90"
           transform="translate(94.291,22.3018)"><path
             d="m 0,0 c -0.158,-1.669 -0.773,-2.971 -1.848,-3.904 -1.074,-0.936 -2.503,-1.403 -4.286,-1.403 -1.246,0 -2.344,0.295 -3.292,0.887 -0.949,0.59 -1.681,1.43 -2.197,2.519 -0.516,1.089 -0.784,2.352 -0.806,3.792 v 1.461 c 0,1.475 0.262,2.775 0.784,3.899 0.523,1.124 1.273,1.991 2.251,2.6 0.977,0.608 2.107,0.913 3.389,0.913 1.726,0 3.115,-0.467 4.168,-1.403 C -0.784,8.428 -0.172,7.104 0,5.393 H -2.707 C -2.836,6.517 -3.164,7.328 -3.69,7.826 -4.216,8.323 -4.988,8.572 -6.005,8.572 -7.187,8.572 -8.094,8.141 -8.728,7.276 -9.362,6.413 -9.686,5.146 -9.7,3.476 V 2.089 c 0,-1.692 0.302,-2.983 0.908,-3.871 0.604,-0.889 1.491,-1.333 2.658,-1.333 1.067,0 1.869,0.24 2.406,0.719 0.538,0.48 0.877,1.279 1.021,2.396 z"
             style="fill:#0b73b8;fill-opacity:1;fill-rule:nonzero;stroke:none"
             id="path92" /></g><g
           id="g94"
           transform="translate(98.5879,22.9033)"><path
             d="m 0,0 c 0,-1.196 0.247,-2.133 0.741,-2.809 0.494,-0.677 1.182,-1.015 2.063,-1.015 0.881,0 1.566,0.344 2.057,1.031 0.49,0.688 0.736,1.693 0.736,3.019 C 5.597,1.4 5.344,2.331 4.839,3.019 4.334,3.706 3.648,4.05 2.782,4.05 1.93,4.05 1.253,3.711 0.752,3.035 0.25,2.357 0,1.347 0,0 m -2.61,0.226 c 0,1.138 0.225,2.165 0.676,3.077 0.452,0.914 1.085,1.615 1.902,2.105 C 0.784,5.899 1.722,6.145 2.782,6.145 4.351,6.145 5.624,5.64 6.601,4.63 7.579,3.62 8.106,2.281 8.186,0.612 L 8.196,0 c 0,-1.146 -0.22,-2.17 -0.66,-3.072 C 7.095,-3.975 6.465,-4.673 5.645,-5.167 4.825,-5.661 3.878,-5.908 2.804,-5.908 c -1.64,0 -2.953,0.546 -3.937,1.638 -0.985,1.092 -1.477,2.547 -1.477,4.367 z"
             style="fill:#0b73b8;fill-opacity:1;fill-rule:nonzero;stroke:none"
             id="path96" /></g><g
           id="g98"
           transform="translate(111.4463,28.833)"><path
             d="m 0,0 0.075,-1.214 c 0.817,0.952 1.934,1.429 3.352,1.429 1.553,0 2.617,-0.595 3.19,-1.783 0.845,1.188 2.034,1.783 3.567,1.783 1.281,0 2.235,-0.355 2.862,-1.064 0.627,-0.709 0.947,-1.755 0.962,-3.136 v -7.638 h -2.611 v 7.562 c 0,0.738 -0.161,1.279 -0.483,1.623 -0.322,0.343 -0.856,0.515 -1.601,0.515 -0.594,0 -1.079,-0.159 -1.455,-0.477 -0.376,-0.32 -0.639,-0.737 -0.79,-1.252 l 0.011,-7.971 h -2.61 v 7.648 c -0.036,1.369 -0.735,2.052 -2.095,2.052 -1.046,0 -1.787,-0.426 -2.224,-1.278 v -8.422 H -2.46 L -2.46,0 Z"
             style="fill:#0b73b8;fill-opacity:1;fill-rule:nonzero;stroke:none"
             id="path100" /></g><g
           id="g102"
           transform="translate(135.7129,23.1289)"><path
             d="m 0,0 c 0,1.16 -0.231,2.08 -0.693,2.761 -0.462,0.68 -1.122,1.02 -1.982,1.02 -1.067,0 -1.833,-0.44 -2.299,-1.321 v -5.156 c 0.473,-0.903 1.246,-1.354 2.321,-1.354 0.83,0 1.48,0.335 1.949,1.004 C -0.235,-2.376 0,-1.36 0,0 m 2.6,-0.226 c 0,-1.797 -0.409,-3.231 -1.225,-4.302 -0.816,-1.071 -1.912,-1.606 -3.287,-1.606 -1.275,0 -2.296,0.419 -3.062,1.257 v -5.511 h -2.61 V 5.704 h 2.406 L -5.07,4.522 c 0.766,0.931 1.808,1.397 3.126,1.397 1.418,0 2.529,-0.528 3.335,-1.584 C 2.197,3.278 2.6,1.812 2.6,-0.064 Z"
             style="fill:#0b73b8;fill-opacity:1;fill-rule:nonzero;stroke:none"
             id="path104" /></g><g
           id="g106"
           transform="translate(144.5967,19.0898)"><path
             d="M 0,0 C 0.516,0 1,0.125 1.456,0.376 1.91,0.627 2.252,0.963 2.481,1.386 V 3.577 H 1.074 C 0.107,3.577 -0.62,3.409 -1.106,3.072 -1.594,2.735 -1.837,2.26 -1.837,1.644 c 0,-0.501 0.167,-0.901 0.5,-1.198 C -1.004,0.148 -0.559,0 0,0 m 2.868,-1.88 c -0.115,0.222 -0.215,0.584 -0.301,1.085 -0.831,-0.866 -1.847,-1.3 -3.05,-1.3 -1.168,0 -2.121,0.333 -2.858,0.999 -0.738,0.666 -1.106,1.49 -1.106,2.471 0,1.239 0.46,2.189 1.38,2.853 0.92,0.662 2.236,0.993 3.948,0.993 h 1.6 V 5.983 C 2.481,6.585 2.313,7.066 1.977,7.429 1.64,7.79 1.128,7.971 0.44,7.971 -0.154,7.971 -0.641,7.822 -1.021,7.524 -1.4,7.228 -1.59,6.85 -1.59,6.392 H -4.2 c 0,0.637 0.211,1.233 0.634,1.789 0.422,0.554 0.997,0.989 1.724,1.304 0.726,0.316 1.537,0.473 2.433,0.473 1.36,0 2.445,-0.342 3.255,-1.025 C 4.655,8.248 5.07,7.287 5.092,6.048 V 0.806 c 0,-1.046 0.146,-1.88 0.44,-2.503 V -1.88 Z"
             style="fill:#0b73b8;fill-opacity:1;fill-rule:nonzero;stroke:none"
             id="path108" /></g><g
           id="g110"
           transform="translate(155.6934,31.6582)"><path
             d="M 0,0 V -2.825 H 2.052 V -4.759 H 0 v -6.488 c 0,-0.444 0.087,-0.765 0.263,-0.961 0.175,-0.197 0.489,-0.296 0.94,-0.296 0.301,0 0.605,0.036 0.913,0.108 v -2.02 c -0.595,-0.165 -1.167,-0.247 -1.719,-0.247 -2.005,0 -3.007,1.106 -3.007,3.319 v 6.585 h -1.912 v 1.934 h 1.912 l 0,2.825 z"
             style="fill:#0b73b8;fill-opacity:1;fill-rule:nonzero;stroke:none"
             id="path112" /></g><path
           d="m 162.515,17.21 h -2.61 v 11.623 h 2.61 z m -2.772,14.642 c 0,0.401 0.127,0.734 0.382,0.999 0.253,0.264 0.617,0.397 1.09,0.397 0.472,0 0.838,-0.133 1.096,-0.397 0.257,-0.265 0.386,-0.598 0.386,-0.999 0,-0.394 -0.129,-0.722 -0.386,-0.984 -0.258,-0.261 -0.624,-0.391 -1.096,-0.391 -0.473,0 -0.837,0.13 -1.09,0.391 -0.255,0.262 -0.382,0.59 -0.382,0.984"
           style="fill:#0b73b8;fill-opacity:1;fill-rule:nonzero;stroke:none"
           id="path114" /><g
           id="g116"
           transform="translate(172.9453,23.1289)"><path
             d="m 0,0 c 0,1.261 -0.222,2.206 -0.666,2.836 -0.444,0.63 -1.089,0.945 -1.934,0.945 -1.131,0 -1.926,-0.494 -2.384,-1.482 v -4.791 c 0.465,-1.01 1.267,-1.515 2.406,-1.515 0.816,0 1.446,0.305 1.891,0.913 0.443,0.609 0.672,1.53 0.687,2.761 z m 2.61,-0.226 c 0,-1.804 -0.402,-3.24 -1.208,-4.307 -0.806,-1.068 -1.914,-1.601 -3.325,-1.601 -1.361,0 -2.421,0.49 -3.18,1.472 l -0.128,-1.257 h -2.364 v 16.5 h 2.611 V 4.587 c 0.752,0.888 1.765,1.332 3.04,1.332 1.418,0 2.531,-0.526 3.34,-1.579 C 2.206,3.287 2.61,1.815 2.61,-0.075 Z"
             style="fill:#0b73b8;fill-opacity:1;fill-rule:nonzero;stroke:none"
             id="path118" /></g><path
           d="m 180.519,17.21 h -2.61 v 16.5 h 2.61 z"
           style="fill:#0b73b8;fill-opacity:1;fill-rule:nonzero;stroke:none"
           id="path120" /><g
           id="g122"
           transform="translate(188.167,26.9531)"><path
             d="m 0,0 c -0.716,0 -1.295,-0.251 -1.734,-0.752 -0.442,-0.501 -0.722,-1.199 -0.844,-2.095 h 4.974 v 0.194 C 2.338,-1.779 2.105,-1.119 1.697,-0.671 1.289,-0.224 0.724,0 0,0 m 0.312,-9.958 c -1.655,0 -2.996,0.521 -4.023,1.562 -1.028,1.043 -1.542,2.43 -1.542,4.164 v 0.322 c 0,1.16 0.224,2.196 0.671,3.11 0.448,0.912 1.076,1.623 1.886,2.132 0.809,0.509 1.712,0.763 2.707,0.763 1.583,0 2.805,-0.505 3.669,-1.515 0.862,-1.01 1.294,-2.438 1.294,-4.286 v -1.053 h -7.595 c 0.079,-0.96 0.399,-1.719 0.961,-2.277 0.562,-0.559 1.269,-0.838 2.122,-0.838 1.196,0 2.17,0.483 2.922,1.45 L 4.791,-7.767 C 4.325,-8.461 3.704,-9 2.928,-9.384 2.15,-9.767 1.278,-9.958 0.312,-9.958"
             style="fill:#0b73b8;fill-opacity:1;fill-rule:nonzero;stroke:none"
             id="path124" /></g><g
           id="g126"
           transform="translate(210.6611,25.4385)"><path
             d="m 0,0 c 0,1.733 -0.327,3.062 -0.983,3.985 -0.655,0.924 -1.584,1.386 -2.788,1.386 -1.174,0 -2.092,-0.46 -2.755,-1.381 -0.662,-0.92 -1,-2.221 -1.015,-3.904 v -0.902 c 0,-1.719 0.335,-3.047 1.005,-3.986 0.669,-0.938 1.599,-1.407 2.787,-1.407 1.203,0 2.129,0.458 2.777,1.375 C -0.324,-3.917 0,-2.578 0,-0.816 Z m 2.718,-0.816 c 0,-1.533 -0.265,-2.877 -0.795,-4.034 -0.53,-1.157 -1.287,-2.045 -2.272,-2.664 -0.985,-0.62 -2.118,-0.929 -3.4,-0.929 -1.268,0 -2.397,0.309 -3.389,0.929 -0.992,0.619 -1.758,1.502 -2.299,2.648 -0.541,1.145 -0.815,2.467 -0.822,3.964 v 0.881 c 0,1.525 0.271,2.872 0.811,4.039 0.541,1.167 1.303,2.06 2.289,2.679 0.984,0.62 2.114,0.93 3.388,0.93 1.275,0 2.405,-0.307 3.389,-0.918 C 0.604,6.096 1.364,5.215 1.901,4.066 2.438,2.916 2.711,1.579 2.718,0.054 Z"
             style="fill:#0b73b8;fill-opacity:1;fill-rule:nonzero;stroke:none"
             id="path128" /></g><g
           id="g130"
           transform="translate(223.4229,23.1289)"><path
             d="m 0,0 c 0,1.261 -0.222,2.206 -0.666,2.836 -0.444,0.63 -1.089,0.945 -1.934,0.945 -1.131,0 -1.926,-0.494 -2.384,-1.482 v -4.791 c 0.465,-1.01 1.267,-1.515 2.406,-1.515 0.816,0 1.446,0.305 1.891,0.913 0.444,0.609 0.672,1.53 0.687,2.761 z m 2.61,-0.226 c 0,-1.804 -0.402,-3.24 -1.209,-4.307 -0.804,-1.068 -1.913,-1.601 -3.324,-1.601 -1.36,0 -2.421,0.49 -3.18,1.472 l -0.128,-1.257 h -2.364 v 16.5 h 2.611 V 4.587 c 0.752,0.888 1.765,1.332 3.04,1.332 1.418,0 2.531,-0.526 3.34,-1.579 C 2.206,3.287 2.61,1.815 2.61,-0.075 Z"
             style="fill:#0b73b8;fill-opacity:1;fill-rule:nonzero;stroke:none"
             id="path132" /></g><g
           id="g134"
           transform="translate(228.1064,31.8516)"><path
             d="M 0,0 C 0,0.401 0.127,0.734 0.381,0.999 0.636,1.264 0.999,1.396 1.472,1.396 1.944,1.396 2.31,1.264 2.567,0.999 2.825,0.734 2.954,0.401 2.954,0 2.954,-0.394 2.825,-0.722 2.567,-0.983 2.31,-1.244 1.944,-1.375 1.472,-1.375 0.999,-1.375 0.636,-1.244 0.381,-0.983 0.127,-0.722 0,-0.394 0,0 m 2.836,-3.019 v -12.654 c 0,-1.188 -0.295,-2.097 -0.887,-2.723 -0.59,-0.626 -1.455,-0.94 -2.594,-0.94 -0.479,0 -0.941,0.061 -1.385,0.183 v 2.062 c 0.272,-0.064 0.58,-0.096 0.924,-0.096 0.866,0 1.31,0.472 1.332,1.417 v 12.751 z"
             style="fill:#0b73b8;fill-opacity:1;fill-rule:nonzero;stroke:none"
             id="path136" /></g><g
           id="g138"
           transform="translate(238.5371,26.9531)"><path
             d="m 0,0 c -0.716,0 -1.295,-0.251 -1.734,-0.752 -0.442,-0.501 -0.722,-1.199 -0.844,-2.095 h 4.974 v 0.194 C 2.338,-1.779 2.105,-1.119 1.697,-0.671 1.289,-0.224 0.724,0 0,0 m 0.312,-9.958 c -1.655,0 -2.996,0.521 -4.023,1.562 -1.028,1.043 -1.542,2.43 -1.542,4.164 v 0.322 c 0,1.16 0.224,2.196 0.671,3.11 0.448,0.912 1.076,1.623 1.886,2.132 0.809,0.509 1.712,0.763 2.707,0.763 1.583,0 2.805,-0.505 3.669,-1.515 0.862,-1.01 1.294,-2.438 1.294,-4.286 v -1.053 h -7.595 c 0.079,-0.96 0.399,-1.719 0.961,-2.277 0.562,-0.559 1.269,-0.838 2.122,-0.838 1.196,0 2.17,0.483 2.922,1.45 L 4.791,-7.767 C 4.325,-8.461 3.704,-9 2.928,-9.384 2.15,-9.767 1.278,-9.958 0.312,-9.958"
             style="fill:#0b73b8;fill-opacity:1;fill-rule:nonzero;stroke:none"
             id="path140" /></g><g
           id="g142"
           transform="translate(250.3105,19.0791)"><path
             d="m 0,0 c 0.651,0 1.192,0.189 1.622,0.569 0.43,0.38 0.659,0.849 0.688,1.408 H 4.77 C 4.741,1.253 4.516,0.578 4.093,-0.049 3.67,-0.675 3.098,-1.171 2.374,-1.536 1.65,-1.901 0.87,-2.084 0.032,-2.084 c -1.626,0 -2.915,0.526 -3.867,1.579 -0.952,1.053 -1.429,2.507 -1.429,4.361 v 0.269 c 0,1.769 0.473,3.186 1.418,4.248 C -2.9,9.438 -1.611,9.969 0.021,9.969 1.403,9.969 2.53,9.566 3.399,8.76 4.271,7.955 4.727,6.896 4.77,5.586 H 2.31 C 2.281,6.252 2.054,6.8 1.628,7.229 1.201,7.659 0.659,7.874 0,7.874 -0.845,7.874 -1.497,7.568 -1.955,6.955 -2.413,6.344 -2.646,5.414 -2.653,4.168 V 3.749 c 0,-1.261 0.227,-2.2 0.681,-2.819 C -1.517,0.31 -0.859,0 0,0"
             style="fill:#0b73b8;fill-opacity:1;fill-rule:nonzero;stroke:none"
             id="path144" /></g><g
           id="g146"
           transform="translate(260.3223,31.6582)"><path
             d="M 0,0 V -2.825 H 2.052 V -4.759 H 0 v -6.488 c 0,-0.444 0.088,-0.765 0.263,-0.961 0.175,-0.197 0.489,-0.296 0.94,-0.296 0.301,0 0.606,0.036 0.913,0.108 v -2.02 c -0.595,-0.165 -1.167,-0.247 -1.719,-0.247 -2.004,0 -3.007,1.106 -3.007,3.319 v 6.585 h -1.912 v 1.934 h 1.912 l 0,2.825 z"
             style="fill:#0b73b8;fill-opacity:1;fill-rule:nonzero;stroke:none"
             id="path148" /></g><g
           id="g150"
           transform="translate(278.2725,21.2383)"><path
             d="m 0,0 c 0,0.687 -0.241,1.218 -0.726,1.59 -0.482,0.372 -1.354,0.748 -2.615,1.128 -1.261,0.38 -2.263,0.802 -3.008,1.267 -1.424,0.896 -2.137,2.063 -2.137,3.502 0,1.261 0.513,2.299 1.542,3.116 1.027,0.816 2.361,1.224 4.001,1.224 1.089,0 2.058,-0.2 2.911,-0.601 C 0.82,10.824 1.489,10.253 1.977,9.513 2.464,8.771 2.707,7.949 2.707,7.047 H 0 c 0,0.816 -0.256,1.456 -0.769,1.917 -0.511,0.463 -1.244,0.693 -2.196,0.693 -0.888,0 -1.577,-0.189 -2.067,-0.569 -0.491,-0.38 -0.737,-0.909 -0.737,-1.59 0,-0.573 0.265,-1.051 0.795,-1.435 C -4.443,5.681 -3.57,5.309 -2.353,4.946 -1.135,4.585 -0.157,4.173 0.58,3.712 1.317,3.249 1.858,2.72 2.202,2.122 2.546,1.523 2.718,0.823 2.718,0.021 c 0,-1.303 -0.5,-2.339 -1.498,-3.11 -1,-0.769 -2.355,-1.154 -4.067,-1.154 -1.132,0 -2.172,0.209 -3.121,0.629 -0.948,0.418 -1.685,0.997 -2.213,1.734 -0.525,0.737 -0.789,1.597 -0.789,2.578 h 2.718 c 0,-0.887 0.294,-1.575 0.881,-2.062 0.587,-0.488 1.429,-0.731 2.524,-0.731 0.946,0 1.657,0.192 2.133,0.574 C -0.238,-1.137 0,-0.63 0,0"
             style="fill:#0b73b8;fill-opacity:1;fill-rule:nonzero;stroke:none"
             id="path152" /></g><g
           id="g154"
           transform="translate(286.3936,31.6582)"><path
             d="M 0,0 V -2.825 H 2.052 V -4.759 H 0 v -6.488 c 0,-0.444 0.088,-0.765 0.263,-0.961 0.175,-0.197 0.489,-0.296 0.94,-0.296 0.301,0 0.606,0.036 0.913,0.108 v -2.02 c -0.595,-0.165 -1.167,-0.247 -1.719,-0.247 -2.004,0 -3.007,1.106 -3.007,3.319 v 6.585 h -1.912 v 1.934 h 1.912 l 0,2.825 z"
             style="fill:#0b73b8;fill-opacity:1;fill-rule:nonzero;stroke:none"
             id="path156" /></g><g
           id="g158"
           transform="translate(292.5596,22.9033)"><path
             d="m 0,0 c 0,-1.196 0.247,-2.133 0.741,-2.809 0.494,-0.677 1.182,-1.015 2.063,-1.015 0.881,0 1.566,0.344 2.057,1.031 C 5.352,-2.105 5.597,-1.1 5.597,0.226 5.597,1.4 5.344,2.331 4.84,3.019 4.334,3.706 3.648,4.05 2.782,4.05 1.93,4.05 1.253,3.711 0.752,3.035 0.251,2.357 0,1.347 0,0 m -2.61,0.226 c 0,1.138 0.225,2.165 0.676,3.077 0.452,0.914 1.085,1.615 1.902,2.105 0.816,0.491 1.755,0.737 2.814,0.737 1.569,0 2.841,-0.505 3.82,-1.515 C 7.578,3.62 8.106,2.281 8.186,0.612 L 8.196,0 c 0,-1.146 -0.219,-2.17 -0.661,-3.072 -0.439,-0.903 -1.07,-1.601 -1.89,-2.095 -0.82,-0.494 -1.767,-0.741 -2.841,-0.741 -1.64,0 -2.952,0.546 -3.937,1.638 -0.985,1.092 -1.477,2.547 -1.477,4.367 z"
             style="fill:#0b73b8;fill-opacity:1;fill-rule:nonzero;stroke:none"
             id="path160" /></g><g
           id="g162"
           transform="translate(309.0488,26.4482)"><path
             d="m 0,0 c -0.344,0.058 -0.698,0.086 -1.063,0.086 -1.197,0 -2.002,-0.458 -2.417,-1.375 V -9.238 H -6.091 V 2.385 h 2.492 l 0.065,-1.3 c 0.63,1.01 1.504,1.515 2.621,1.515 0.372,0 0.681,-0.05 0.924,-0.151 z"
             style="fill:#0b73b8;fill-opacity:1;fill-rule:nonzero;stroke:none"
             id="path164" /></g><g
           id="g166"
           transform="translate(314.7744,19.0898)"><path
             d="M 0,0 C 0.516,0 1.001,0.125 1.455,0.376 1.91,0.627 2.252,0.963 2.481,1.386 V 3.577 H 1.074 C 0.107,3.577 -0.619,3.409 -1.106,3.072 -1.594,2.735 -1.837,2.26 -1.837,1.644 -1.837,1.143 -1.67,0.743 -1.338,0.446 -1.004,0.148 -0.559,0 0,0 m 2.868,-1.88 c -0.114,0.222 -0.215,0.584 -0.301,1.085 -0.831,-0.866 -1.847,-1.3 -3.05,-1.3 -1.167,0 -2.121,0.333 -2.858,0.999 -0.737,0.666 -1.106,1.49 -1.106,2.471 0,1.239 0.46,2.189 1.381,2.853 0.92,0.662 2.235,0.993 3.947,0.993 h 1.6 V 5.983 C 2.481,6.585 2.313,7.066 1.977,7.429 1.64,7.79 1.128,7.971 0.44,7.971 -0.154,7.971 -0.641,7.822 -1.021,7.524 -1.4,7.228 -1.59,6.85 -1.59,6.392 H -4.2 c 0,0.637 0.211,1.233 0.634,1.789 0.422,0.554 0.997,0.989 1.724,1.304 0.727,0.316 1.537,0.473 2.433,0.473 1.36,0 2.445,-0.342 3.255,-1.025 C 4.655,8.248 5.07,7.287 5.092,6.048 V 0.806 c 0,-1.046 0.146,-1.88 0.44,-2.503 V -1.88 Z"
             style="fill:#0b73b8;fill-opacity:1;fill-rule:nonzero;stroke:none"
             id="path168" /></g><g
           id="g170"
           transform="translate(324.7432,22.8818)"><path
             d="M 0,0 C 0,-1.167 0.238,-2.086 0.715,-2.756 1.19,-3.425 1.852,-3.76 2.696,-3.76 c 1.053,0 1.833,0.451 2.342,1.354 V 2.707 C 4.544,3.588 3.771,4.028 2.718,4.028 1.858,4.028 1.19,3.688 0.715,3.008 0.238,2.327 0,1.325 0,0 m -2.6,0.226 c 0,1.804 0.424,3.246 1.274,4.323 0.847,1.078 1.974,1.617 3.378,1.617 1.325,0 2.367,-0.462 3.126,-1.386 L 5.296,5.951 H 7.648 V -5.317 c 0,-1.526 -0.474,-2.729 -1.423,-3.61 -0.949,-0.881 -2.229,-1.321 -3.84,-1.321 -0.853,0 -1.685,0.178 -2.498,0.531 -0.813,0.356 -1.43,0.819 -1.853,1.392 l 1.236,1.568 c 0.801,-0.952 1.79,-1.429 2.964,-1.429 0.867,0 1.551,0.235 2.052,0.704 0.501,0.469 0.752,1.159 0.752,2.068 V -4.63 C 4.286,-5.468 3.283,-5.887 2.03,-5.887 c -1.36,0 -2.472,0.541 -3.335,1.622 -0.863,1.081 -1.295,2.578 -1.295,4.491"
             style="fill:#0b73b8;fill-opacity:1;fill-rule:nonzero;stroke:none"
             id="path172" /></g><g
           id="g174"
           transform="translate(339.8789,26.9531)"><path
             d="m 0,0 c -0.716,0 -1.295,-0.251 -1.734,-0.752 -0.442,-0.501 -0.722,-1.199 -0.844,-2.095 h 4.974 v 0.194 C 2.338,-1.779 2.105,-1.119 1.697,-0.671 1.289,-0.224 0.724,0 0,0 m 0.312,-9.958 c -1.655,0 -2.996,0.521 -4.023,1.562 -1.028,1.043 -1.542,2.43 -1.542,4.164 v 0.322 c 0,1.16 0.224,2.196 0.671,3.11 0.448,0.912 1.076,1.623 1.886,2.132 0.809,0.509 1.712,0.763 2.707,0.763 1.583,0 2.805,-0.505 3.669,-1.515 0.862,-1.01 1.294,-2.438 1.294,-4.286 v -1.053 h -7.595 c 0.079,-0.96 0.399,-1.719 0.961,-2.277 0.562,-0.559 1.269,-0.838 2.122,-0.838 1.196,0 2.17,0.483 2.922,1.45 L 4.791,-7.767 C 4.325,-8.461 3.704,-9 2.928,-9.384 2.15,-9.767 1.278,-9.958 0.312,-9.958"
             style="fill:#0b73b8;fill-opacity:1;fill-rule:nonzero;stroke:none"
             id="path176" /></g></g></g></g></svg>
