<?xml version="1.0" encoding="UTF-8" standalone="no"?>
<!-- Generator: Adobe Illustrator 27.0.0, SVG Export Plug-In . SVG Version: 6.00 Build 0)  -->

<svg
   version="1.1"
   id="Layer_1"
   x="0px"
   y="0px"
   viewBox="0 0 400 120"
   xml:space="preserve"
   sodipodi:docname="minio.svg"
   inkscape:version="1.1.2 (0a00cf5339, 2022-02-04)"
   xmlns:inkscape="http://www.inkscape.org/namespaces/inkscape"
   xmlns:sodipodi="http://sodipodi.sourceforge.net/DTD/sodipodi-0.dtd"
   xmlns:xlink="http://www.w3.org/1999/xlink"
   xmlns="http://www.w3.org/2000/svg"
   xmlns:svg="http://www.w3.org/2000/svg"><defs
   id="defs78"><rect
   x="-12.310704"
   y="130.17005"
   id="rect2854" />
	

		
		
		
		
		
		
	</defs><sodipodi:namedview
   id="namedview76"
   pagecolor="#ffffff"
   bordercolor="#666666"
   borderopacity="1.0"
   inkscape:pageshadow="2"
   inkscape:pageopacity="0.0"
   inkscape:pagecheckerboard="0"
   showgrid="false"
   inkscape:snap-global="true"
   fit-margin-top="0"
   fit-margin-left="0"
   fit-margin-right="0"
   fit-margin-bottom="0"
   inkscape:zoom="1.9289873"
   inkscape:cx="166.66776"
   inkscape:cy="91.239585"
   inkscape:window-width="1920"
   inkscape:window-height="1023"
   inkscape:window-x="0"
   inkscape:window-y="0"
   inkscape:window-maximized="1"
   inkscape:current-layer="text2852"
   height="154px" />
<style
   type="text/css"
   id="style2">
	.st0{fill:none;}
	.st1{enable-background:new    ;}
	.st2{fill:#343434;}
	.st3{fill:#D03850;}
	.st4{clip-path:url(#SVGID_00000148662086262103992630000015539105521009494150_);}
</style>
<rect
   class="st0"
   width="300"
   height="250"
   id="rect4"
   x="-8.8682652"
   y="-54.99836" />
<g
   class="st1"
   id="g36"
   transform="translate(56.286064,-62.767478)">
			<path
   class="st2"
   d="m 50.7,119.1 v 9.4 h -3.6 v -27.7 h 3.6 v 13.5 l 2.7,-3.4 8.1,-10.2 h 4.3 l -9.7,12.1 10.3,15.6 h -4.3 l -8.4,-12.9 z"
   id="path28" />
			<path
   class="st2"
   d="m 69.6,107.9 h 3.2 l 0.2,3 c 0.3,-0.4 0.6,-0.8 1,-1.2 0.4,-0.4 0.7,-0.7 1.2,-0.9 0.6,-0.4 1.3,-0.7 2,-0.9 0.7,-0.2 1.5,-0.3 2.3,-0.4 1.1,0 2.1,0.2 2.9,0.5 0.9,0.3 1.6,0.8 2.3,1.4 0.6,0.6 1.1,1.5 1.4,2.5 0.3,1 0.5,2.2 0.5,3.6 v 13.1 H 83 v -13 c 0,-0.9 -0.1,-1.7 -0.3,-2.3 -0.2,-0.6 -0.5,-1.1 -0.9,-1.5 -0.4,-0.4 -0.9,-0.7 -1.5,-0.9 -0.6,-0.2 -1.2,-0.3 -2,-0.3 -0.6,0 -1.3,0.1 -1.8,0.3 -0.6,0.2 -1.1,0.4 -1.5,0.8 -0.4,0.3 -0.7,0.6 -1.1,1 -0.3,0.4 -0.6,0.8 -0.8,1.2 v 14.8 h -3.5 z"
   id="path30" />
			<path
   class="st2"
   d="m 91.7,113.9 c 0.4,-1.3 1.1,-2.4 1.9,-3.3 0.8,-0.9 1.8,-1.7 2.9,-2.2 1.2,-0.5 2.5,-0.8 3.9,-0.8 1.5,0 2.8,0.3 3.9,0.8 1.2,0.5 2.1,1.3 3,2.2 0.8,0.9 1.4,2 1.8,3.3 0.4,1.3 0.6,2.7 0.6,4.1 v 0.4 c 0,1.5 -0.2,2.9 -0.6,4.1 -0.4,1.2 -1,2.4 -1.8,3.3 -0.8,0.9 -1.8,1.7 -3,2.2 -1.2,0.5 -2.5,0.8 -3.9,0.8 -1.5,0 -2.8,-0.3 -3.9,-0.8 -1.2,-0.5 -2.1,-1.3 -2.9,-2.2 -0.8,-0.9 -1.4,-2 -1.9,-3.3 -0.5,-1.3 -0.6,-2.6 -0.6,-4.1 V 118 c -0.1,-1.5 0.2,-2.9 0.6,-4.1 z m 3.2,7.4 c 0.2,0.9 0.6,1.7 1.1,2.4 0.5,0.7 1.1,1.3 1.8,1.7 0.7,0.4 1.6,0.6 2.6,0.6 1,0 1.8,-0.2 2.5,-0.6 0.7,-0.4 1.3,-1 1.8,-1.7 0.5,-0.7 0.8,-1.5 1.1,-2.4 0.2,-0.9 0.4,-1.9 0.4,-2.9 V 118 c 0,-1 -0.1,-2 -0.4,-2.9 -0.2,-0.9 -0.6,-1.7 -1.1,-2.4 -0.5,-0.7 -1.1,-1.3 -1.8,-1.7 -0.7,-0.4 -1.6,-0.6 -2.6,-0.6 -1,0 -1.8,0.2 -2.6,0.6 -0.7,0.4 -1.3,1 -1.8,1.7 -0.5,0.7 -0.9,1.5 -1.1,2.4 -0.2,0.9 -0.4,1.9 -0.4,2.9 v 0.4 c 0.2,1 0.3,2 0.5,2.9 z"
   id="path32" />
			<path
   class="st2"
   d="m 112.1,107.9 h 3.1 l 2.4,13.1 0.4,3 0.5,-3 3.3,-13.1 h 2.3 l 3.3,13.1 0.6,3.2 0.5,-3.2 2.3,-13.1 h 3.1 l -4.4,20.6 h -2.8 l -3.2,-12.6 -0.5,-3.2 -0.5,3.2 -3.2,12.6 h -2.8 z"
   id="path34" />
		</g><g
   id="g501"
   transform="translate(0,-6)"><g
     class="st1"
     id="g26"
     transform="translate(56.646962,-42.531195)">
			<path
   class="st2"
   d="m 46.8,52.8 h 6.4 c 1.1,0 2.1,0.1 3.1,0.3 1,0.2 1.8,0.5 2.7,0.9 1.1,0.5 2.1,1.2 3,2 0.9,0.8 1.6,1.8 2.1,2.9 0.5,0.9 0.8,2 1.1,3.1 0.2,1.1 0.4,2.3 0.4,3.6 v 2 c 0,1.2 -0.1,2.4 -0.4,3.5 -0.3,1.1 -0.6,2.1 -1,3 -0.5,1 -1,1.8 -1.7,2.6 -0.7,0.8 -1.5,1.4 -2.3,2 -0.9,0.6 -1.9,1 -3.1,1.3 -1.2,0.3 -2.4,0.5 -3.7,0.5 H 47 V 52.8 Z m 3.6,24.8 h 2.8 c 1,0 1.9,-0.1 2.8,-0.4 0.9,-0.3 1.6,-0.6 2.2,-1 0.7,-0.5 1.3,-1 1.8,-1.7 0.5,-0.7 0.9,-1.4 1.2,-2.2 0.3,-0.7 0.4,-1.4 0.6,-2.2 0.1,-0.8 0.2,-1.6 0.2,-2.4 V 65.6 C 62,64.7 61.9,63.9 61.8,63.1 61.7,62.3 61.5,61.6 61.2,60.9 60.9,60 60.4,59.2 59.8,58.5 59.2,57.8 58.5,57.2 57.7,56.8 57.1,56.5 56.4,56.2 55.7,56 55,55.8 54.2,55.7 53.3,55.7 h -2.8 v 21.9 z"
   id="path6" />
			<path
   class="st2"
   d="m 74.7,80.1 c -1.2,-0.5 -2.3,-1.2 -3.1,-2.1 -0.8,-0.9 -1.5,-1.9 -2,-3.2 -0.5,-1.3 -0.7,-2.5 -0.7,-4 V 70 c 0,-1.7 0.3,-3.2 0.8,-4.5 0.5,-1.3 1.2,-2.4 2.1,-3.3 0.9,-0.9 1.9,-1.6 3,-2.1 1.1,-0.5 2.3,-0.7 3.5,-0.7 1.5,0 2.8,0.3 3.9,0.8 1.1,0.5 2,1.2 2.8,2.1 0.7,0.9 1.3,2 1.6,3.2 0.4,1.2 0.5,2.6 0.5,4 v 1.6 H 72.4 v 0.1 c 0.1,1 0.3,1.9 0.6,2.6 0.3,0.7 0.7,1.4 1.3,2 0.6,0.6 1.2,1.1 2,1.5 0.8,0.4 1.7,0.5 2.6,0.5 1.3,0 2.4,-0.3 3.4,-0.8 1,-0.5 1.8,-1.2 2.4,-2 l 2.2,1.7 c -0.7,1 -1.7,2 -3.1,2.8 -1.4,0.8 -3,1.2 -5.1,1.2 -1.4,0.2 -2.8,-0.1 -4,-0.6 z m 1.5,-17.3 c -0.6,0.3 -1.2,0.6 -1.7,1.1 -0.5,0.5 -0.9,1.1 -1.3,1.9 -0.3,0.7 -0.6,1.6 -0.7,2.5 h 11.1 v -0.2 c 0,-0.6 -0.1,-1.3 -0.4,-2 -0.2,-0.7 -0.6,-1.4 -1,-1.9 -0.4,-0.5 -1,-1 -1.6,-1.3 -0.7,-0.3 -1.4,-0.5 -2.3,-0.5 -0.8,0 -1.4,0.1 -2.1,0.4 z"
   id="path8" />
			<path
   class="st2"
   d="m 90.6,59.9 h 3.6 l 5.9,15.5 0.3,1.3 0.3,-1.3 5.8,-15.5 h 3.6 l -8.4,20.6 H 99 Z"
   id="path10" />
			<path
   class="st2"
   d="m 119.6,80.1 c -1.2,-0.5 -2.3,-1.2 -3.1,-2.1 -0.8,-0.9 -1.5,-1.9 -2,-3.2 -0.5,-1.3 -0.7,-2.5 -0.7,-4 V 70 c 0,-1.7 0.3,-3.2 0.8,-4.5 0.5,-1.3 1.2,-2.4 2.1,-3.3 0.9,-0.9 1.9,-1.6 3,-2.1 1.1,-0.5 2.3,-0.7 3.5,-0.7 1.5,0 2.8,0.3 3.9,0.8 1.1,0.5 2,1.2 2.8,2.1 0.7,0.9 1.3,2 1.6,3.2 0.4,1.2 0.5,2.6 0.5,4 v 1.6 h -14.7 v 0.1 c 0.1,1 0.3,1.9 0.6,2.6 0.3,0.7 0.7,1.4 1.3,2 0.6,0.6 1.2,1.1 2,1.5 0.8,0.4 1.7,0.5 2.6,0.5 1.3,0 2.4,-0.3 3.4,-0.8 1,-0.5 1.8,-1.2 2.4,-2 l 2.2,1.7 c -0.7,1 -1.7,2 -3.1,2.8 -1.4,0.8 -3,1.2 -5.1,1.2 -1.5,0.2 -2.8,-0.1 -4,-0.6 z m 1.5,-17.3 c -0.6,0.3 -1.2,0.6 -1.7,1.1 -0.5,0.5 -0.9,1.1 -1.3,1.9 -0.3,0.7 -0.6,1.6 -0.7,2.5 h 11.1 v -0.2 c 0,-0.6 -0.1,-1.3 -0.4,-2 -0.2,-0.7 -0.6,-1.4 -1,-1.9 -0.4,-0.5 -1,-1 -1.6,-1.3 -0.7,-0.3 -1.4,-0.5 -2.3,-0.5 -0.8,0 -1.5,0.1 -2.1,0.4 z"
   id="path12" />
			<path
   class="st2"
   d="m 148,51.2 v 26.2 h 6.7 v 3 h -17.3 v -3 h 7 V 54.3 h -7 v -3.1 z"
   id="path14" />
			<path
   class="st2"
   d="m 159,65.9 c 0.4,-1.3 1.1,-2.4 1.9,-3.3 0.8,-0.9 1.8,-1.7 2.9,-2.2 1.2,-0.5 2.5,-0.8 3.9,-0.8 1.5,0 2.8,0.3 3.9,0.8 1.2,0.5 2.1,1.3 3,2.2 0.8,0.9 1.4,2 1.8,3.3 0.4,1.3 0.6,2.7 0.6,4.1 v 0.4 c 0,1.5 -0.2,2.9 -0.6,4.1 -0.4,1.2 -1,2.4 -1.8,3.3 -0.8,0.9 -1.8,1.7 -3,2.2 -1.2,0.5 -2.5,0.8 -3.9,0.8 -1.5,0 -2.8,-0.3 -3.9,-0.8 -1.1,-0.5 -2.1,-1.3 -2.9,-2.2 -0.8,-0.9 -1.4,-2 -1.9,-3.3 -0.5,-1.3 -0.6,-2.6 -0.6,-4.1 V 70 c -0.1,-1.5 0.1,-2.9 0.6,-4.1 z m 3.2,7.4 c 0.2,0.9 0.6,1.7 1.1,2.4 0.5,0.7 1.1,1.3 1.8,1.7 0.7,0.4 1.6,0.6 2.6,0.6 1,0 1.8,-0.2 2.5,-0.6 0.7,-0.4 1.3,-1 1.8,-1.7 0.5,-0.7 0.8,-1.5 1.1,-2.4 0.2,-0.9 0.4,-1.9 0.4,-2.9 V 70 c 0,-1 -0.1,-2 -0.4,-2.9 -0.2,-0.9 -0.6,-1.7 -1.1,-2.4 -0.5,-0.7 -1.1,-1.3 -1.8,-1.7 -0.7,-0.4 -1.6,-0.6 -2.6,-0.6 -1,0 -1.8,0.2 -2.6,0.6 -0.7,0.4 -1.3,1 -1.8,1.7 -0.5,0.7 -0.9,1.5 -1.1,2.4 -0.2,0.9 -0.4,1.9 -0.4,2.9 v 0.4 c 0.1,1 0.3,2 0.5,2.9 z"
   id="path16" />
			<path
   class="st2"
   d="m 181.7,59.9 h 3.2 l 0.2,2.2 c 0.3,-0.4 0.6,-0.7 0.9,-1 0.3,-0.3 0.7,-0.5 1.1,-0.7 0.5,-0.3 1.1,-0.5 1.8,-0.7 0.7,-0.2 1.4,-0.2 2.1,-0.2 1.3,0 2.5,0.3 3.5,0.8 1,0.5 1.9,1.2 2.6,2.2 0.7,1 1.2,2 1.6,3.3 0.4,1.3 0.5,2.7 0.5,4.2 v 0.4 c 0,1.5 -0.2,2.8 -0.5,4.1 -0.4,1.3 -0.9,2.4 -1.6,3.3 -0.7,0.9 -1.5,1.7 -2.5,2.2 -1,0.5 -2.2,0.8 -3.5,0.8 -0.8,0 -1.5,-0.1 -2.2,-0.2 -0.7,-0.2 -1.3,-0.4 -1.8,-0.7 -0.3,-0.2 -0.6,-0.4 -0.9,-0.6 -0.3,-0.2 -0.6,-0.5 -0.8,-0.8 v 9.9 h -3.5 V 59.9 Z m 13.6,7.3 c -0.2,-0.9 -0.6,-1.7 -1,-2.4 -0.5,-0.7 -1.1,-1.2 -1.8,-1.6 -0.7,-0.4 -1.6,-0.6 -2.6,-0.6 -0.5,0 -1.1,0.1 -1.5,0.2 -0.5,0.1 -0.9,0.3 -1.2,0.6 -0.4,0.2 -0.8,0.5 -1.1,0.9 -0.3,0.4 -0.6,0.7 -0.8,1.2 v 9.9 c 0.2,0.4 0.5,0.7 0.7,1.1 0.2,0.4 0.6,0.6 1,0.8 0.4,0.3 0.9,0.5 1.4,0.6 0.5,0.1 1.1,0.2 1.7,0.2 1,0 1.8,-0.2 2.5,-0.6 0.7,-0.4 1.3,-1 1.8,-1.7 0.5,-0.7 0.8,-1.5 1,-2.4 0.2,-0.9 0.3,-1.9 0.3,-2.9 V 70 c -0.1,-1 -0.2,-1.9 -0.4,-2.8 z"
   id="path18" />
			<path
   class="st2"
   d="m 209.3,80.1 c -1.2,-0.5 -2.3,-1.2 -3.1,-2.1 -0.8,-0.9 -1.5,-1.9 -2,-3.2 -0.5,-1.3 -0.7,-2.5 -0.7,-4 V 70 c 0,-1.7 0.3,-3.2 0.8,-4.5 0.5,-1.3 1.2,-2.4 2.1,-3.3 0.9,-0.9 1.9,-1.6 3,-2.1 1.1,-0.5 2.3,-0.7 3.5,-0.7 1.5,0 2.8,0.3 3.9,0.8 1.1,0.5 2,1.2 2.8,2.1 0.7,0.9 1.3,2 1.6,3.2 0.4,1.2 0.5,2.6 0.5,4 v 1.6 H 207 v 0.1 c 0.1,1 0.3,1.9 0.6,2.6 0.3,0.8 0.7,1.4 1.3,2 0.6,0.6 1.2,1.1 2,1.5 0.8,0.4 1.7,0.5 2.6,0.5 1.3,0 2.4,-0.3 3.4,-0.8 1,-0.5 1.8,-1.2 2.4,-2 l 2.2,1.7 c -0.7,1 -1.7,2 -3.1,2.8 -1.4,0.8 -3.1,1.2 -5.1,1.2 -1.5,0.2 -2.8,-0.1 -4,-0.6 z m 1.5,-17.3 c -0.6,0.3 -1.2,0.6 -1.7,1.1 -0.5,0.5 -0.9,1.1 -1.3,1.9 -0.3,0.7 -0.6,1.6 -0.7,2.5 h 11.1 v -0.2 c 0,-0.6 -0.1,-1.3 -0.4,-2 -0.2,-0.7 -0.6,-1.4 -1,-1.9 -0.4,-0.5 -1,-1 -1.6,-1.3 -0.7,-0.3 -1.4,-0.5 -2.3,-0.5 -0.8,0 -1.5,0.1 -2.1,0.4 z"
   id="path20" />
			<path
   class="st2"
   d="m 242.1,59.6 c 0.7,0.1 1.2,0.2 1.6,0.4 l -0.5,3.4 c -0.7,-0.2 -1.3,-0.3 -2,-0.3 -0.6,-0.1 -1.3,-0.1 -1.9,-0.1 -0.9,0 -1.6,0.1 -2.3,0.3 -0.7,0.2 -1.3,0.5 -1.8,0.9 -0.5,0.4 -0.9,0.8 -1.2,1.3 -0.3,0.5 -0.6,1.1 -0.9,1.7 v 13.2 h -3.5 V 59.9 h 3.4 l 0.2,2.8 v 0.5 c 0.8,-1.1 1.8,-2 3,-2.7 1.2,-0.7 2.5,-1 4,-1 0.5,0 1.2,0.1 1.9,0.1 z"
   id="path22" />
			<path
   class="st2"
   d="m 262.5,73.9 c -0.2,-0.3 -0.4,-0.6 -0.8,-0.9 -0.4,-0.3 -0.9,-0.5 -1.6,-0.8 -0.6,-0.2 -1.5,-0.4 -2.4,-0.6 -1.2,-0.2 -2.3,-0.5 -3.2,-0.9 -1,-0.3 -1.8,-0.8 -2.5,-1.2 -0.7,-0.5 -1.2,-1 -1.6,-1.7 -0.4,-0.6 -0.6,-1.4 -0.6,-2.2 0,-0.8 0.2,-1.6 0.6,-2.4 0.4,-0.7 0.9,-1.4 1.7,-1.9 0.7,-0.5 1.6,-1 2.5,-1.3 1,-0.3 2.1,-0.5 3.2,-0.5 1.3,0 2.4,0.2 3.4,0.5 1,0.3 1.9,0.8 2.6,1.4 0.7,0.6 1.3,1.3 1.6,2 0.4,0.8 0.6,1.6 0.6,2.5 h -3.5 c 0,-0.4 -0.1,-0.9 -0.3,-1.3 -0.2,-0.4 -0.5,-0.8 -1,-1.1 -0.5,-0.3 -0.9,-0.6 -1.5,-0.8 -0.6,-0.2 -1.2,-0.3 -2,-0.3 -0.7,0 -1.4,0.1 -2,0.2 -0.6,0.2 -1,0.4 -1.4,0.7 -0.4,0.3 -0.7,0.6 -0.9,1 -0.2,0.4 -0.3,0.7 -0.3,1.1 0,0.4 0.1,0.8 0.2,1.1 0.1,0.3 0.4,0.6 0.8,0.9 0.4,0.3 0.9,0.5 1.5,0.7 0.6,0.2 1.4,0.4 2.4,0.6 1.3,0.3 2.4,0.6 3.4,0.9 1,0.3 1.8,0.8 2.5,1.2 0.7,0.5 1.2,1.1 1.6,1.7 0.4,0.6 0.5,1.4 0.5,2.2 0,0.9 -0.2,1.7 -0.6,2.5 -0.4,0.8 -1,1.4 -1.7,1.9 -0.7,0.5 -1.6,0.9 -2.6,1.2 -1,0.3 -2.2,0.4 -3.4,0.4 -1.4,0 -2.6,-0.2 -3.7,-0.6 -1.1,-0.4 -2,-0.9 -2.8,-1.5 -0.8,-0.6 -1.3,-1.3 -1.7,-2.1 -0.4,-0.8 -0.6,-1.7 -0.6,-2.5 h 3.5 c 0.1,0.7 0.2,1.3 0.6,1.8 0.3,0.5 0.8,0.9 1.3,1.2 0.5,0.3 1,0.5 1.7,0.6 0.6,0.1 1.2,0.2 1.8,0.2 0.9,0 1.8,-0.1 2.5,-0.3 0.7,-0.2 1.2,-0.5 1.6,-0.9 0.2,-0.2 0.4,-0.5 0.6,-0.8 0.2,-0.3 0.2,-0.6 0.2,-0.9 0,-0.3 -0.1,-0.7 -0.2,-1 z"
   id="path24" />
		</g><g
     class="st1"
     id="g40"
     transform="translate(56.646962,-42.531195)">
			<path
   class="st2"
   d="m 23.2,69.1 v 0.4 l -5.5,7.2 h -2.6 l 4.8,-7.4 -4.8,-7.4 h 2.6 z"
   id="path38" />
		</g></g><g
   id="g486"
   transform="translate(0.36089765,-41.096058)"><g
     transform="translate(102.60296,110.71581)"
     id="g64">
			<rect
   x="59.799999"
   y="0.69999999"
   class="st3"
   width="10.3"
   height="30.299999"
   id="rect42" />
			<g
   id="g62">
				<g
   id="g60">
					<defs
   id="defs45"><rect
     id="SVGID_1_"
     x="0"
     y="0"
     width="184.60001"
     height="31.6" /></defs>
					<clipPath
   id="SVGID_00000095313647804014869330000001592249187272067725_">
						<use
   xlink:href="#SVGID_1_"
   style="overflow:visible"
   id="use47"
   x="0"
   y="0"
   width="100%"
   height="100%" />
					</clipPath>
					<g
   clip-path="url(#SVGID_00000095313647804014869330000001592249187272067725_)"
   id="g58">
						<path
   class="st3"
   d="m 47.3,1 -21,12.8 c -0.3,0.2 -0.7,0.2 -1,0 L 4.4,1 C 3.9,0.7 3.4,0.6 2.9,0.6 v 0 C 1.3,0.5 0,1.8 0,3.4 v 27.5 h 10.3 v -13 c 0,-0.6 0.5,-1 1,-1 0.2,0 0.4,0.1 0.5,0.2 l 11.8,7.2 c 1.2,0.7 2.6,0.7 3.8,0 L 39.9,17 c 0.5,-0.3 1.1,-0.1 1.4,0.4 0.1,0.2 0.1,0.3 0.1,0.5 V 31 H 51.7 V 3.4 c 0,-1.6 -1.3,-2.9 -2.9,-2.9 v 0 c -0.5,0 -1,0.2 -1.5,0.5"
   id="path50" />
						<path
   class="st3"
   d="m 121.7,0.7 h -10.5 v 13.9 c 0,0.6 -0.5,1 -1,1 -0.2,0 -0.3,0 -0.5,-0.1 L 82.6,1 C 82.2,0.8 81.7,0.7 81.2,0.7 v 0 C 79.6,0.7 78.3,2 78.3,3.6 V 31 H 88.7 V 17.3 c 0,-0.6 0.5,-1 1,-1 0.2,0 0.3,0 0.5,0.1 l 27.3,14.5 c 1.4,0.7 3.1,0.2 3.9,-1.2 0.2,-0.4 0.3,-0.9 0.3,-1.3 z"
   id="path52" />
						<rect
   x="130.10001"
   y="0.69999999"
   class="st3"
   width="4.8000002"
   height="30.299999"
   id="rect54" />
						<path
   class="st3"
   d="m 162.6,31.6 c -12.8,0 -21.9,-6.1 -21.9,-15.8 0,-9.7 9.1,-15.8 21.9,-15.8 12.8,0 21.9,6.1 21.9,15.8 0,9.7 -8.9,15.8 -21.9,15.8 m 0,-27.6 c -9.5,0 -16.8,4.2 -16.8,11.8 0,7.7 7.3,11.8 16.8,11.8 9.5,0 16.9,-4.1 16.9,-11.8 C 179.5,8.2 172.1,4 162.6,4"
   id="path56" />
					</g>
				</g>
			</g>
		</g><g
     transform="translate(102.60296,110.71581)"
     id="g68">
			<rect
   x="59.799999"
   y="0.69999999"
   class="st3"
   width="10.3"
   height="30.299999"
   id="rect66" />
		</g><path
     class="st2"
     d="m 334.64696,144.8688 h -30.2 v -5 h 30.2 z"
     id="path70" /></g>
<g
   aria-label="High Performance Object Storage, Any Cloud, Any HW, Any Workload"
   transform="translate(16,-26)"
   id="text2852"
   style="font-weight:bold;font-size:10.2667px;line-height:125%;font-family:FreeMono;-inkscape-font-specification:'FreeMono, Bold';letter-spacing:0px;word-spacing:0px;white-space:pre;shape-inside:url(#rect2854);stroke-width:1px"><path
     d="m -8.2654672,139.66662 q -0.6776021,0 -0.6776021,-0.51334 0,-0.51333 0.6776021,-0.51333 h 0.1540005 v -1.44761 H -10.30854 v 1.44761 h 0.154 q 0.6776023,0 0.6776023,0.51333 0,0.51334 -0.6776023,0.51334 h -1.242271 q -0.677602,0 -0.677602,-0.51334 0,-0.29773 0.174534,-0.4004 0.174534,-0.11293 0.503068,-0.11293 h 0.0616 v -3.93215 q -0.533869,-0.0513 -0.533869,-0.51333 0,-0.29774 0.174534,-0.4004 0.174534,-0.11294 0.503068,-0.11294 h 1.036937 q 0.6776023,0 0.6776023,0.51334 0,0.51333 -0.6776023,0.51333 h -0.154 v 1.45787 h 2.1970733 v -1.45787 h -0.1540005 q -0.6776021,0 -0.6776021,-0.51333 0,-0.29774 0.1745339,-0.4004 0.1745338,-0.11294 0.5030682,-0.11294 h 1.0369367 q 0.6776022,0 0.6776022,0.51334 0,0.462 -0.5338684,0.51333 v 3.93215 h 0.0616 q 0.6776022,0 0.6776022,0.51333 0,0.51334 -0.6776022,0.51334 z"
     id="path46819" /><path
     d="m -1.3046604,138.63995 q 0.67760215,0 0.67760215,0.51333 0,0.51334 -0.67760215,0.51334 h -3.5317448 q -0.6776021,0 -0.6776021,-0.51334 0,-0.29773 0.1745338,-0.4004 0.1745339,-0.11293 0.5030683,-0.11293 h 1.2525374 v -2.43321 h -0.8008026 q -0.6878689,0 -0.6878689,-0.51333 0,-0.308 0.1745339,-0.41067 0.1848006,-0.10267 0.513335,-0.10267 h 1.8274726 v 3.45988 z m -1.3962712,-5.36948 v 1.078 h -1.2114706 v -1.078 z"
     id="path46821" /><path
     d="m 1.4570661,141.20662 q 0,-0.29773 0.1745339,-0.41066 0.1745339,-0.10267 0.5030683,-0.10267 h 1.1190702 q 0.4517348,0 0.7084023,-0.2156 0.2566675,-0.2156 0.2566675,-0.60574 v -0.56467 q -0.6776022,0.50307 -1.4476047,0.50307 -1.0369366,0 -1.7350722,-0.6776 -0.6878689,-0.68787 -0.6878689,-1.70427 0,-1.02667 0.6878689,-1.70427 0.6981356,-0.68787 1.7350722,-0.68787 0.8418694,0 1.4476047,0.51333 v -0.3696 h 1.1909372 q 0.6776022,0 0.6776022,0.51334 0,0.51333 -0.6776022,0.51333 H 5.2454783 v 3.66521 q 0,0.81107 -0.5646685,1.32441 -0.5544018,0.5236 -1.3962712,0.5236 H 2.1346683 q -0.6776022,0 -0.6776022,-0.51334 z m 1.3346709,-5.14361 q -0.5852018,0 -1.0061365,0.4004 -0.410668,0.39013 -0.410668,0.9548 0,0.56467 0.410668,0.96507 0.4209347,0.4004 1.0061365,0.4004 0.5852019,0 1.0061366,-0.39013 0.4209347,-0.4004 0.4209347,-0.9548 0,-0.57494 -0.4209347,-0.97534 -0.410668,-0.4004 -1.0061366,-0.4004 z"
     id="path46823" /><path
     d="m 6.3029331,133.7838 q 0,-0.51333 0.6776022,-0.51333 h 1.1909372 v 2.4024 q 0.616002,-0.62627 1.4065378,-0.62627 0.8213357,0 1.3141377,0.47227 0.503068,0.462 0.503068,1.23201 v 1.88907 h 0.0616 q 0.677603,0 0.677603,0.51333 0,0.51334 -0.677603,0.51334 h -1.14987 q -0.6878689,0 -0.6878689,-0.51334 0,-0.51333 0.6878689,-0.51333 h 0.0616 v -1.75561 q 0,-0.39013 -0.1848,-0.59547 -0.174534,-0.2156 -0.7186693,-0.2156 -0.3593345,0 -0.6057353,0.13347 -0.2464008,0.13347 -0.6878689,0.5544 v 1.87881 h 0.0616 q 0.6878689,0 0.6878689,0.51333 0,0.51334 -0.6878689,0.51334 H 7.0832023 q -0.6776022,0 -0.6776022,-0.51334 0,-0.51333 0.6776022,-0.51333 h 0.0616 v -4.34281 H 6.9805353 q -0.3285344,0 -0.5030683,-0.10267 -0.1745339,-0.11294 -0.1745339,-0.41067 z"
     id="path46825" /><path
     d="m 23.920558,135.62154 q 0,0.2772 -0.0616,0.53387 -0.0616,0.25667 -0.236134,0.53387 -0.174534,0.26693 -0.441468,0.47226 -0.256667,0.19507 -0.698135,0.32854 -0.431202,0.1232 -0.99587,0.1232 h -1.006137 v 1.02667 h 1.016403 q 0.677603,0 0.677603,0.51333 0,0.51334 -0.677603,0.51334 h -2.197073 q -0.677603,0 -0.677603,-0.51334 0,-0.51333 0.677603,-0.51333 h 0.154 v -3.93215 h -0.154 q -0.677603,0 -0.677603,-0.51333 0,-0.29774 0.174534,-0.4004 0.174534,-0.11294 0.503069,-0.11294 h 2.392141 q 0.975336,0 1.601605,0.54414 0.626269,0.54413 0.626269,1.39627 z m -3.439345,-0.91374 v 1.87881 h 1.211471 q 0.533868,0 0.831602,-0.2464 0.308001,-0.25667 0.308001,-0.68787 0,-0.44147 -0.308001,-0.68787 -0.297734,-0.25667 -0.831602,-0.25667 z"
     id="path46827" /><path
     d="m 30.296164,138.97875 q 0,0.32853 -0.595469,0.54414 -0.595468,0.20533 -1.11907,0.25666 -0.513335,0.0513 -0.882936,0.0513 -1.190937,0 -1.950673,-0.66734 -0.759736,-0.66733 -0.759736,-1.71454 0,-1.0164 0.759736,-1.70427 0.770002,-0.69814 1.889073,-0.69814 1.14987,0 1.899339,0.69814 0.759736,0.69814 0.759736,1.75561 v 0.4004 H 26.10735 q 0.349068,0.90347 1.683739,0.90347 0.544135,0 1.211471,-0.16427 0.667335,-0.17453 0.800802,-0.17453 0.205334,0 0.349068,0.154 0.143734,0.14373 0.143734,0.35933 z m -4.158014,-1.98147 h 3.01841 q -0.1232,-0.42094 -0.533868,-0.66734 -0.410668,-0.25667 -0.975337,-0.25667 -0.564668,0 -0.985603,0.25667 -0.410668,0.25667 -0.523602,0.66734 z"
     id="path46829" /><path
     d="m 35.378164,135.05687 q 0.431201,0 0.862403,0.26694 0.431201,0.26693 0.431201,0.60573 0,0.2156 -0.154,0.3696 -0.154001,0.154 -0.359335,0.154 -0.174534,0 -0.400401,-0.1848 -0.225868,-0.1848 -0.400401,-0.1848 -0.246401,0 -0.605736,0.22587 -0.349067,0.2156 -1.08827,0.82133 v 1.50921 h 1.427071 q 0.687869,0 0.687869,0.51333 0,0.51334 -0.687869,0.51334 h -3.049209 q -0.677603,0 -0.677603,-0.51334 0,-0.29773 0.174534,-0.4004 0.174534,-0.11293 0.503069,-0.11293 h 0.595468 v -2.43321 h -0.359334 q -0.677603,0 -0.677603,-0.51333 0,-0.51334 0.677603,-0.51334 h 1.386004 v 0.66734 q 0.616002,-0.462 0.975337,-0.62627 0.359334,-0.16427 0.739202,-0.16427 z"
     id="path46831" /><path
     d="m 40.994033,133.27047 q 1.837739,0 1.837739,0.6468 0,0.22586 -0.143734,0.37987 -0.133467,0.14373 -0.338801,0.14373 -0.05133,0 -0.564669,-0.0719 -0.503068,-0.0719 -0.882936,-0.0719 -0.862403,0 -0.862403,0.50306 v 0.37987 h 1.550272 q 0.677602,0 0.677602,0.51334 0,0.51333 -0.677602,0.51333 h -1.550272 v 2.43321 h 1.427072 q 0.677602,0 0.677602,0.51333 0,0.51334 -0.677602,0.51334 h -3.04921 q -0.677602,0 -0.677602,-0.51334 0,-0.29773 0.174534,-0.4004 0.174534,-0.11293 0.503068,-0.11293 h 0.595468 v -2.43321 h -0.482534 q -0.677603,0 -0.677603,-0.51333 0,-0.308 0.174534,-0.41067 0.184801,-0.10267 0.513335,-0.10267 h 0.472268 v -0.37987 q 0,-0.7084 0.533869,-1.11907 0.533868,-0.41066 1.447605,-0.41066 z"
     id="path46833" /><path
     d="m 46.2403,135.0466 q 1.08827,0 1.848006,0.69814 0.770002,0.69814 0.770002,1.69401 0,1.00613 -0.770002,1.70427 -0.770003,0.68787 -1.878806,0.68787 -1.108804,0 -1.878806,-0.68787 -0.770003,-0.69814 -0.770003,-1.70427 0,-1.01641 0.770003,-1.70428 0.770002,-0.68787 1.909606,-0.68787 z m -0.01027,1.02667 q -0.698135,0 -1.170404,0.39014 -0.472268,0.39013 -0.472268,0.97534 0,0.57493 0.462002,0.97533 0.472268,0.39014 1.160137,0.39014 0.687869,0 1.14987,-0.39014 0.472268,-0.4004 0.472268,-0.97533 0,-0.57494 -0.472268,-0.96507 -0.462001,-0.40041 -1.129337,-0.40041 z"
     id="path46835" /><path
     d="m 53.858175,135.05687 q 0.431201,0 0.862403,0.26694 0.431201,0.26693 0.431201,0.60573 0,0.2156 -0.154,0.3696 -0.154001,0.154 -0.359335,0.154 -0.174534,0 -0.400401,-0.1848 -0.225868,-0.1848 -0.400401,-0.1848 -0.246401,0 -0.605736,0.22587 -0.349068,0.2156 -1.08827,0.82133 v 1.50921 h 1.427071 q 0.687869,0 0.687869,0.51333 0,0.51334 -0.687869,0.51334 h -3.049209 q -0.677603,0 -0.677603,-0.51334 0,-0.29773 0.174534,-0.4004 0.174534,-0.11293 0.503069,-0.11293 h 0.595468 v -2.43321 h -0.359334 q -0.677603,0 -0.677603,-0.51333 0,-0.51334 0.677603,-0.51334 h 1.386004 v 0.66734 q 0.616002,-0.462 0.975337,-0.62627 0.359334,-0.16427 0.739202,-0.16427 z"
     id="path46837" /><path
     d="m 55.942303,139.66662 q -0.687869,0 -0.687869,-0.51334 0,-0.51333 0.616002,-0.51333 v -2.43321 q -0.616002,-0.0205 -0.616002,-0.51333 0,-0.51334 0.687869,-0.51334 h 0.954803 v 0.2464 q 0.472268,-0.37987 0.872669,-0.37987 0.585202,0 1.047204,0.50307 0.462001,-0.50307 1.067736,-0.50307 0.574936,0 0.954803,0.39014 0.390135,0.37987 0.390135,0.9548 v 2.24841 q 0.616002,0 0.616002,0.51333 0,0.51334 -0.677602,0.51334 h -0.96507 v -3.19294 q 0,-0.22587 -0.08213,-0.30801 -0.07187,-0.0924 -0.2772,-0.0924 -0.205334,0 -0.369602,0.0924 -0.154,0.0924 -0.410668,0.36961 v 2.10467 q 0.287468,0 0.451735,0.14373 0.164267,0.13347 0.164267,0.3696 0,0.51334 -0.677602,0.51334 h -0.96507 v -3.19294 q 0,-0.21561 -0.08213,-0.30801 -0.08213,-0.0924 -0.277201,-0.0924 -0.369601,0 -0.780269,0.46201 v 2.10467 q 0.626268,0 0.626268,0.51333 0,0.51334 -0.677602,0.51334 z"
     id="path46839" /><path
     d="m 62.040706,138.44488 q 0,-0.69813 0.687869,-1.21147 0.687869,-0.5236 1.796672,-0.5236 0.462002,0 1.067737,0.10267 v -0.23614 q 0,-0.50307 -0.954803,-0.50307 -0.420935,0 -0.954803,0.1232 -0.533868,0.11294 -0.646802,0.11294 -0.215601,0 -0.359335,-0.14374 -0.143733,-0.154 -0.143733,-0.37986 0,-0.32854 0.308001,-0.4312 0.872669,-0.30801 1.765872,-0.30801 0.944536,0 1.478405,0.40041 0.544135,0.4004 0.544135,1.11907 v 2.07387 h 0.164267 q 0.677602,0 0.677602,0.51333 0,0.51334 -0.677602,0.51334 h -1.201204 v -0.23613 q -0.770002,0.4004 -1.704272,0.4004 -0.759736,0 -1.303871,-0.4004 -0.544135,-0.41067 -0.544135,-0.98561 z m 3.562545,-0.16427 v -0.51333 q -0.646802,-0.11293 -1.139604,-0.11293 -0.523601,0 -0.934269,0.22586 -0.400402,0.22587 -0.400402,0.52361 0,0.17453 0.225868,0.28746 0.225867,0.11294 0.554401,0.11294 0.84187,0 1.694006,-0.52361 z"
     id="path46841" /><path
     d="m 68.683245,139.66662 q -0.677603,0 -0.677603,-0.51334 0,-0.51333 0.677603,-0.51333 h 0.0616 v -2.43321 q -0.626269,-0.0205 -0.626269,-0.51333 0,-0.51334 0.687869,-0.51334 h 0.96507 v 0.4928 q 0.369601,-0.34906 0.677602,-0.48253 0.308001,-0.14374 0.728936,-0.14374 0.800802,0 1.314137,0.45174 0.513335,0.45173 0.513335,1.27307 v 1.86854 q 0.626269,0 0.626269,0.51333 0,0.51334 -0.677602,0.51334 h -0.913737 q -0.687868,0 -0.687868,-0.51334 0,-0.51333 0.626268,-0.51333 v -1.82747 q 0,-0.73921 -0.924003,-0.73921 -0.359334,0 -0.646802,0.154 -0.277201,0.15401 -0.636535,0.54414 v 1.86854 h 0.0616 q 0.677602,0 0.677602,0.51333 0,0.51334 -0.677602,0.51334 z"
     id="path46843" /><path
     d="m 79.47353,136.51474 q 0,0.6776 -0.513335,0.6776 -0.277201,0 -0.390135,-0.154 -0.102667,-0.154 -0.164267,-0.37986 -0.0616,-0.22587 -0.205334,-0.32854 -0.420935,-0.25667 -1.08827,-0.25667 -0.728936,0 -1.170404,0.41067 -0.431201,0.4004 -0.431201,1.05747 0,1.26281 1.806939,1.26281 0.544135,0 0.90347,-0.0924 0.359334,-0.0924 0.482534,-0.19507 0.133468,-0.10267 0.256668,-0.19507 0.133467,-0.0924 0.256667,-0.0924 0.205334,0 0.359335,0.154 0.154,0.154 0.154,0.3696 0,0.44147 -0.687868,0.75974 -0.677603,0.31827 -1.796673,0.31827 -0.636535,0 -1.139604,-0.14374 -0.492801,-0.14373 -0.790536,-0.3696 -0.297734,-0.23613 -0.492801,-0.54413 -0.195067,-0.308 -0.266934,-0.60574 -0.07187,-0.308 -0.07187,-0.62627 0,-1.09853 0.728935,-1.79667 0.739203,-0.69814 1.89934,-0.69814 0.882936,0 1.478405,0.30801 0.0924,-0.30801 0.390134,-0.30801 0.492802,0 0.492802,0.67761 z"
     id="path46845" /><path
     d="m 85.736201,138.97875 q 0,0.32853 -0.595469,0.54414 -0.595469,0.20533 -1.11907,0.25666 -0.513335,0.0513 -0.882936,0.0513 -1.190938,0 -1.950673,-0.66734 -0.759736,-0.66733 -0.759736,-1.71454 0,-1.0164 0.759736,-1.70427 0.770002,-0.69814 1.889072,-0.69814 1.149871,0 1.89934,0.69814 0.759736,0.69814 0.759736,1.75561 v 0.4004 h -4.188814 q 0.349068,0.90347 1.683739,0.90347 0.544135,0 1.21147,-0.16427 0.667336,-0.17453 0.800803,-0.17453 0.205334,0 0.349068,0.154 0.143734,0.14373 0.143734,0.35933 z m -4.158014,-1.98147 h 3.01841 q -0.123201,-0.42094 -0.533868,-0.66734 -0.410668,-0.25667 -0.975337,-0.25667 -0.564668,0 -0.985603,0.25667 -0.410668,0.25667 -0.523602,0.66734 z"
     id="path46847" /><path
     d="m 95.489533,133.5374 q 0.225867,0 0.533868,0.0719 0.308001,0.0616 0.728936,0.2772 0.431201,0.2156 0.770003,0.54413 0.349067,0.32854 0.585201,0.93427 0.246401,0.59547 0.246401,1.35521 0,1.2628 -0.852136,2.17654 -0.841869,0.91373 -2.012273,0.91373 -1.190937,0 -2.032807,-0.91373 -0.831602,-0.92401 -0.831602,-2.22788 0,-1.2936 0.841869,-2.20734 0.841869,-0.924 2.02254,-0.924 z m 0,1.02667 q -0.749469,0 -1.293604,0.62627 -0.544135,0.616 -0.544135,1.4784 0,0.87267 0.533868,1.49894 0.544135,0.616 1.303871,0.616 0.749469,0 1.293604,-0.616 0.544135,-0.616 0.544135,-1.46814 0,-0.88293 -0.544135,-1.5092 -0.533868,-0.62627 -1.293604,-0.62627 z"
     id="path46849" /><path
     d="m 98.487393,133.7838 q 0,-0.51333 0.677602,-0.51333 h 1.190935 v 2.2792 q 0.6468,-0.51333 1.54001,-0.51333 1.16013,0 1.848,0.68787 0.68787,0.6776 0.68787,1.70427 0,1.02667 -0.69813,1.70427 -0.69814,0.6776 -1.82748,0.6776 -0.82133,0 -1.55027,-0.50307 v 0.35934 h -1.190935 q -0.677602,0 -0.677602,-0.51334 0,-0.29773 0.174534,-0.4004 0.174534,-0.11293 0.503068,-0.11293 h 0.164267 v -4.34281 h -0.164267 q -0.328534,0 -0.503068,-0.10267 -0.174534,-0.11294 -0.174534,-0.41067 z m 3.398277,2.27921 q -0.69813,0 -1.11907,0.39013 -0.41067,0.37987 -0.41067,0.95481 0,0.60573 0.42094,0.99587 0.4312,0.37986 1.1088,0.37986 0.66734,0 1.08827,-0.37986 0.4312,-0.39014 0.4312,-0.98561 0,-0.57493 -0.42093,-0.96507 -0.42094,-0.39013 -1.09854,-0.39013 z"
     id="path46851" /><path
     d="m 105.62273,141.20662 q 0,-0.29773 0.17454,-0.41066 0.1848,-0.10267 0.50307,-0.10267 h 1.1396 q 0.45173,0 0.7084,-0.2156 0.25667,-0.2156 0.25667,-0.60574 v -3.66521 h -2.07387 q -0.67761,0 -0.67761,-0.51333 0,-0.29774 0.17454,-0.4004 0.17453,-0.11294 0.50307,-0.11294 h 3.10054 v 4.69188 q 0,0.80081 -0.56467,1.32441 -0.5544,0.5236 -1.39627,0.5236 h -1.1704 q -0.67761,0 -0.67761,-0.51334 z m 3.21348,-7.93615 v 1.078 h -1.22174 v -1.078 z"
     id="path46853" /><path
     d="m 116.53622,138.97875 q 0,0.32853 -0.59547,0.54414 -0.59547,0.20533 -1.11907,0.25666 -0.51333,0.0513 -0.88294,0.0513 -1.19093,0 -1.95067,-0.66734 -0.75973,-0.66733 -0.75973,-1.71454 0,-1.0164 0.75973,-1.70427 0.77,-0.69814 1.88907,-0.69814 1.14987,0 1.89934,0.69814 0.75974,0.69814 0.75974,1.75561 v 0.4004 h -4.18881 q 0.34906,0.90347 1.68373,0.90347 0.54414,0 1.21147,-0.16427 0.66734,-0.17453 0.80081,-0.17453 0.20533,0 0.34907,0.154 0.14373,0.14373 0.14373,0.35933 z m -4.15801,-1.98147 h 3.01841 q -0.12321,-0.42094 -0.53387,-0.66734 -0.41067,-0.25667 -0.97534,-0.25667 -0.56467,0 -0.9856,0.25667 -0.41067,0.25667 -0.5236,0.66734 z"
     id="path46855" /><path
     d="m 122.59356,136.51474 q 0,0.6776 -0.51333,0.6776 -0.2772,0 -0.39014,-0.154 -0.10266,-0.154 -0.16426,-0.37986 -0.0616,-0.22587 -0.20534,-0.32854 -0.42093,-0.25667 -1.08827,-0.25667 -0.72893,0 -1.1704,0.41067 -0.4312,0.4004 -0.4312,1.05747 0,1.26281 1.80694,1.26281 0.54413,0 0.90347,-0.0924 0.35933,-0.0924 0.48253,-0.19507 0.13347,-0.10267 0.25667,-0.19507 0.13347,-0.0924 0.25667,-0.0924 0.20533,0 0.35933,0.154 0.154,0.154 0.154,0.3696 0,0.44147 -0.68787,0.75974 -0.6776,0.31827 -1.79667,0.31827 -0.63654,0 -1.1396,-0.14374 -0.49281,-0.14373 -0.79054,-0.3696 -0.29773,-0.23613 -0.4928,-0.54413 -0.19507,-0.308 -0.26694,-0.60574 -0.0719,-0.308 -0.0719,-0.62627 0,-1.09853 0.72893,-1.79667 0.73921,-0.69814 1.89934,-0.69814 0.88294,0 1.47841,0.30801 0.0924,-0.30801 0.39013,-0.30801 0.4928,0 0.4928,0.67761 z"
     id="path46857" /><path
     d="m 125.40662,138.21901 q 0,0.31827 0.17454,0.45174 0.17453,0.13347 0.7084,0.13347 0.4004,0 0.72893,-0.0719 0.33881,-0.0719 0.50307,-0.154 0.17454,-0.0924 0.3388,-0.16427 0.17454,-0.0719 0.28747,-0.0719 0.20534,0 0.34907,0.15401 0.14373,0.154 0.14373,0.3696 0,0.28746 -0.44146,0.5236 -0.43121,0.22587 -0.96507,0.32853 -0.52361,0.11294 -0.95481,0.11294 -0.87267,0 -1.386,-0.37987 -0.51334,-0.37987 -0.51334,-1.03694 v -2.20734 h -0.35933 q -0.6776,0 -0.6776,-0.51333 0,-0.29774 0.17453,-0.4004 0.17453,-0.11294 0.50307,-0.11294 h 0.35933 v -0.90347 q 0,-0.6776 0.51334,-0.6776 0.29773,0 0.4004,0.17453 0.11293,0.17454 0.11293,0.50307 v 0.90347 h 1.85828 q 0.32853,0 0.50306,0.11294 0.17454,0.10266 0.17454,0.4004 0,0.51333 -0.6776,0.51333 h -1.85828 z"
     id="path46859" /><path
     d="m 140.33437,133.5374 q 0.308,0 0.4004,0.17453 0.10267,0.17454 0.10267,0.50307 v 0.90347 q 0,0.68787 -0.50307,0.68787 -0.0821,0 -0.154,-0.0103 -0.0616,-0.0205 -0.11293,-0.0411 -0.0411,-0.0308 -0.0821,-0.0719 -0.0411,-0.0513 -0.0616,-0.0821 -0.0205,-0.0308 -0.0411,-0.0924 -0.0205,-0.0616 -0.0308,-0.0821 0,-0.0308 -0.0205,-0.0924 -0.0103,-0.0719 -0.0103,-0.0821 -0.0719,-0.308 -0.41067,-0.4928 -0.32854,-0.19507 -0.81107,-0.19507 -0.48254,0 -0.82134,0.22587 -0.3388,0.22586 -0.3388,0.5544 0,0.34907 0.3388,0.54413 0.3388,0.1848 0.79054,0.2464 0.45173,0.0513 1.00614,0.20534 0.5544,0.14373 0.87267,0.4004 0.60573,0.48253 0.60573,1.28334 0,0.8008 -0.6468,1.2936 -0.6468,0.4928 -1.70427,0.4928 -0.85214,0 -1.60161,-0.4004 -0.20533,0.2464 -0.41067,0.2464 -0.5236,0 -0.5236,-0.6776 v -0.6776 q 0,-0.3388 0.11294,-0.50307 0.11293,-0.17453 0.4004,-0.17453 0.0924,0 0.16426,0.0205 0.0821,0.0205 0.13347,0.0616 0.0513,0.0411 0.0821,0.0821 0.0411,0.0308 0.0616,0.0924 0.0308,0.0616 0.0411,0.0924 0.0103,0.0308 0.0205,0.0821 0.0205,0.0513 0.0205,0.0616 0.0719,0.2772 0.4928,0.47227 0.42093,0.19506 0.93427,0.19506 0.57493,0 0.96507,-0.22586 0.39013,-0.22587 0.39013,-0.55441 0,-0.308 -0.308,-0.4928 -0.29773,-0.1848 -0.69813,-0.2464 -0.39014,-0.0616 -0.92401,-0.1848 -0.5236,-0.1232 -0.84186,-0.29773 -0.39014,-0.22587 -0.61601,-0.60574 -0.22586,-0.37987 -0.22586,-0.82133 0,-0.78027 0.63653,-1.29361 0.63654,-0.5236 1.59134,-0.5236 0.79054,0 1.33467,0.3388 0.0821,-0.19507 0.16427,-0.26693 0.0821,-0.0719 0.23613,-0.0719 z"
     id="path46861" /><path
     d="m 143.88663,138.21901 q 0,0.31827 0.17454,0.45174 0.17453,0.13347 0.7084,0.13347 0.4004,0 0.72894,-0.0719 0.3388,-0.0719 0.50306,-0.154 0.17454,-0.0924 0.3388,-0.16427 0.17454,-0.0719 0.28747,-0.0719 0.20534,0 0.34907,0.15401 0.14373,0.154 0.14373,0.3696 0,0.28746 -0.44146,0.5236 -0.43121,0.22587 -0.96507,0.32853 -0.52361,0.11294 -0.95481,0.11294 -0.87267,0 -1.386,-0.37987 -0.51334,-0.37987 -0.51334,-1.03694 v -2.20734 h -0.35933 q -0.6776,0 -0.6776,-0.51333 0,-0.29774 0.17453,-0.4004 0.17453,-0.11294 0.50307,-0.11294 h 0.35933 v -0.90347 q 0,-0.6776 0.51334,-0.6776 0.29773,0 0.4004,0.17453 0.11293,0.17454 0.11293,0.50307 v 0.90347 h 1.85828 q 0.32853,0 0.50306,0.11294 0.17454,0.10266 0.17454,0.4004 0,0.51333 -0.6776,0.51333 h -1.85828 z"
     id="path46863" /><path
     d="m 150.96037,135.0466 q 1.08827,0 1.84801,0.69814 0.77,0.69814 0.77,1.69401 0,1.00613 -0.77,1.70427 -0.77,0.68787 -1.87881,0.68787 -1.1088,0 -1.8788,-0.68787 -0.77001,-0.69814 -0.77001,-1.70427 0,-1.01641 0.77001,-1.70428 0.77,-0.68787 1.9096,-0.68787 z m -0.0103,1.02667 q -0.69814,0 -1.17041,0.39014 -0.47227,0.39013 -0.47227,0.97534 0,0.57493 0.46201,0.97533 0.47226,0.39014 1.16013,0.39014 0.68787,0 1.14987,-0.39014 0.47227,-0.4004 0.47227,-0.97533 0,-0.57494 -0.47227,-0.96507 -0.462,-0.40041 -1.12933,-0.40041 z"
     id="path46865" /><path
     d="m 158.57825,135.05687 q 0.4312,0 0.8624,0.26694 0.4312,0.26693 0.4312,0.60573 0,0.2156 -0.154,0.3696 -0.154,0.154 -0.35933,0.154 -0.17454,0 -0.4004,-0.1848 -0.22587,-0.1848 -0.4004,-0.1848 -0.24641,0 -0.60574,0.22587 -0.34907,0.2156 -1.08827,0.82133 v 1.50921 h 1.42707 q 0.68787,0 0.68787,0.51333 0,0.51334 -0.68787,0.51334 h -3.04921 q -0.6776,0 -0.6776,-0.51334 0,-0.29773 0.17453,-0.4004 0.17454,-0.11293 0.50307,-0.11293 h 0.59547 v -2.43321 h -0.35933 q -0.67761,0 -0.67761,-0.51333 0,-0.51334 0.67761,-0.51334 h 1.386 v 0.66734 q 0.616,-0.462 0.97534,-0.62627 0.35933,-0.16427 0.7392,-0.16427 z"
     id="path46867" /><path
     d="m 160.60077,138.44488 q 0,-0.69813 0.68787,-1.21147 0.68787,-0.5236 1.79667,-0.5236 0.46201,0 1.06774,0.10267 v -0.23614 q 0,-0.50307 -0.9548,-0.50307 -0.42094,0 -0.95481,0.1232 -0.53386,0.11294 -0.6468,0.11294 -0.2156,0 -0.35933,-0.14374 -0.14374,-0.154 -0.14374,-0.37986 0,-0.32854 0.308,-0.4312 0.87267,-0.30801 1.76588,-0.30801 0.94453,0 1.4784,0.40041 0.54414,0.4004 0.54414,1.11907 v 2.07387 h 0.16426 q 0.67761,0 0.67761,0.51333 0,0.51334 -0.67761,0.51334 h -1.2012 v -0.23613 q -0.77,0.4004 -1.70427,0.4004 -0.75974,0 -1.30387,-0.4004 -0.54414,-0.41067 -0.54414,-0.98561 z m 3.56255,-0.16427 v -0.51333 q -0.6468,-0.11293 -1.13961,-0.11293 -0.5236,0 -0.93427,0.22586 -0.4004,0.22587 -0.4004,0.52361 0,0.17453 0.22587,0.28746 0.22587,0.11294 0.5544,0.11294 0.84187,0 1.69401,-0.52361 z"
     id="path46869" /><path
     d="m 167.77718,141.20662 q 0,-0.29773 0.17453,-0.41066 0.17454,-0.10267 0.50307,-0.10267 h 1.11907 q 0.45174,0 0.7084,-0.2156 0.25667,-0.2156 0.25667,-0.60574 v -0.56467 q -0.6776,0.50307 -1.4476,0.50307 -1.03694,0 -1.73508,-0.6776 -0.68786,-0.68787 -0.68786,-1.70427 0,-1.02667 0.68786,-1.70427 0.69814,-0.68787 1.73508,-0.68787 0.84187,0 1.4476,0.51333 v -0.3696 h 1.19094 q 0.6776,0 0.6776,0.51334 0,0.51333 -0.6776,0.51333 h -0.16427 v 3.66521 q 0,0.81107 -0.56467,1.32441 -0.5544,0.5236 -1.39627,0.5236 h -1.14987 q -0.6776,0 -0.6776,-0.51334 z m 1.33467,-5.14361 q -0.5852,0 -1.00614,0.4004 -0.41066,0.39013 -0.41066,0.9548 0,0.56467 0.41066,0.96507 0.42094,0.4004 1.00614,0.4004 0.5852,0 1.00614,-0.39013 0.42093,-0.4004 0.42093,-0.9548 0,-0.57494 -0.42093,-0.97534 -0.41067,-0.4004 -1.00614,-0.4004 z"
     id="path46871" /><path
     d="m 178.13626,138.97875 q 0,0.32853 -0.59547,0.54414 -0.59546,0.20533 -1.11907,0.25666 -0.51333,0.0513 -0.88293,0.0513 -1.19094,0 -1.95067,-0.66734 -0.75974,-0.66733 -0.75974,-1.71454 0,-1.0164 0.75974,-1.70427 0.77,-0.69814 1.88907,-0.69814 1.14987,0 1.89934,0.69814 0.75973,0.69814 0.75973,1.75561 v 0.4004 h -4.18881 q 0.34907,0.90347 1.68374,0.90347 0.54413,0 1.21147,-0.16427 0.66733,-0.17453 0.8008,-0.17453 0.20534,0 0.34907,0.154 0.14373,0.14373 0.14373,0.35933 z m -4.15801,-1.98147 h 3.01841 q -0.1232,-0.42094 -0.53387,-0.66734 -0.41067,-0.25667 -0.97534,-0.25667 -0.56466,0 -0.9856,0.25667 -0.41067,0.25667 -0.5236,0.66734 z"
     id="path46873" /><path
     d="m 180.89799,138.29088 h 1.3552 l -1.4476,2.75148 q -0.1232,0.2464 -0.32854,0.2464 -0.13346,0 -0.22586,-0.0924 -0.0924,-0.0821 -0.0924,-0.19507 0,-0.0821 0.0308,-0.19507 z"
     id="path46875" /><path
     d="m 194.56293,139.15328 q 0,-0.29773 0.17454,-0.4004 0.17453,-0.11293 0.50307,-0.11293 h 0.23613 l -0.23613,-0.59547 h -2.44348 l -0.23613,0.59547 h 0.23613 q 0.6776,0 0.6776,0.51333 0,0.51334 -0.6776,0.51334 h -1.36547 q -0.6776,0 -0.6776,-0.51334 0,-0.308 0.1848,-0.41066 0.17453,-0.10267 0.50307,-0.10267 l 1.59134,-3.93215 h -0.64681 q -0.68787,0 -0.68787,-0.51333 0,-0.308 0.17454,-0.41067 0.1848,-0.10267 0.51333,-0.10267 h 2.21761 l 2.04307,4.95882 q 0.69814,0 0.69814,0.51333 0,0.51334 -0.6776,0.51334 h -1.42707 q -0.67761,0 -0.67761,-0.51334 z m 0.25667,-2.13547 -0.8008,-1.97121 -0.81107,1.97121 z"
     id="path46877" /><path
     d="m 198.04333,139.66662 q -0.6776,0 -0.6776,-0.51334 0,-0.51333 0.6776,-0.51333 h 0.0616 v -2.43321 q -0.62627,-0.0205 -0.62627,-0.51333 0,-0.51334 0.68787,-0.51334 h 0.96507 v 0.4928 q 0.3696,-0.34906 0.6776,-0.48253 0.308,-0.14374 0.72894,-0.14374 0.8008,0 1.31413,0.45174 0.51334,0.45173 0.51334,1.27307 v 1.86854 q 0.62627,0 0.62627,0.51333 0,0.51334 -0.6776,0.51334 h -0.91374 q -0.68787,0 -0.68787,-0.51334 0,-0.51333 0.62627,-0.51333 v -1.82747 q 0,-0.73921 -0.924,-0.73921 -0.35934,0 -0.64681,0.154 -0.2772,0.15401 -0.63653,0.54414 v 1.86854 h 0.0616 q 0.6776,0 0.6776,0.51333 0,0.51334 -0.6776,0.51334 z"
     id="path46879" /><path
     d="m 204.08013,141.71996 q -0.308,0 -0.44147,-0.16427 -0.13346,-0.154 -0.13346,-0.34907 0,-0.51333 0.6776,-0.51333 h 1.02667 l 0.56467,-1.05747 -1.76587,-3.42908 q -0.50307,-0.0616 -0.50307,-0.51333 0,-0.51334 0.6776,-0.51334 h 0.924 q 0.32854,0 0.50307,0.11294 0.17453,0.10266 0.17453,0.4004 0,0.4928 -0.60573,0.51333 l 1.1704,2.28948 1.23201,-2.28948 q -0.65707,0 -0.65707,-0.51333 0,-0.51334 0.68787,-0.51334 h 0.94453 q 0.32854,0 0.50307,0.11294 0.17454,0.10266 0.17454,0.4004 0,0.462 -0.53387,0.51333 l -2.36134,4.48655 h 0.0513 q 0.32853,0 0.50307,0.10267 0.17453,0.11293 0.17453,0.41066 0,0.51334 -0.6776,0.51334 h -2.20734 z"
     id="path46881" /><path
     d="m 218.99761,138.78368 q 0.48254,0 0.82134,-0.11293 0.34907,-0.1232 0.4928,-0.25667 0.14374,-0.14373 0.28747,-0.25667 0.154,-0.1232 0.28747,-0.1232 0.20533,0 0.35933,0.154 0.154,0.154 0.154,0.35934 0,0.44147 -0.7084,0.85213 -0.69814,0.41067 -1.72481,0.41067 -1.30387,0 -2.16627,-0.75973 -0.85214,-0.77001 -0.85214,-1.94041 v -0.6776 q 0,-1.23201 0.80081,-2.06361 0.8008,-0.8316 1.99174,-0.8316 0.71867,0 1.45787,0.34907 l 0.10267,0.0411 q 0.17453,-0.2464 0.4312,-0.2464 0.29773,0 0.4004,0.17454 0.11293,0.17453 0.11293,0.50307 v 0.8624 q 0,0.6776 -0.51333,0.6776 -0.1848,0 -0.308,-0.10267 -0.11294,-0.10266 -0.14374,-0.1848 -0.0205,-0.0924 -0.0513,-0.25666 -0.0616,-0.30801 -0.37987,-0.49281 -0.308,-0.19506 -0.57493,-0.2464 -0.26694,-0.0513 -0.49281,-0.0513 -0.78027,0 -1.2936,0.53387 -0.51334,0.5236 -0.51334,1.33467 v 0.65707 q 0,0.77 0.54414,1.232 0.5544,0.462 1.4784,0.462 z"
     id="path46883" /><path
     d="m 222.84761,133.7838 q 0,-0.29773 0.17453,-0.4004 0.17454,-0.11293 0.51334,-0.11293 h 1.82747 v 5.36948 h 1.25254 q 0.6776,0 0.6776,0.51333 0,0.51334 -0.6776,0.51334 h -3.53174 q -0.67761,0 -0.67761,-0.51334 0,-0.29773 0.17454,-0.4004 0.17453,-0.11293 0.50307,-0.11293 h 1.25253 v -4.34281 h -0.8008 q -0.68787,0 -0.68787,-0.51334 z"
     id="path46885" /><path
     d="m 231.04042,135.0466 q 1.08827,0 1.84801,0.69814 0.77,0.69814 0.77,1.69401 0,1.00613 -0.77,1.70427 -0.77001,0.68787 -1.87881,0.68787 -1.1088,0 -1.8788,-0.68787 -0.77001,-0.69814 -0.77001,-1.70427 0,-1.01641 0.77001,-1.70428 0.77,-0.68787 1.9096,-0.68787 z m -0.0103,1.02667 q -0.69813,0 -1.1704,0.39014 -0.47227,0.39013 -0.47227,0.97534 0,0.57493 0.462,0.97533 0.47227,0.39014 1.16014,0.39014 0.68787,0 1.14987,-0.39014 0.47227,-0.4004 0.47227,-0.97533 0,-0.57494 -0.47227,-0.96507 -0.462,-0.40041 -1.12934,-0.40041 z"
     id="path46887" /><path
     d="m 237.83696,136.20674 q -0.308,0 -0.44147,-0.154 -0.13346,-0.16427 -0.13346,-0.35933 0,-0.51334 0.6776,-0.51334 h 1.386 v 3.45988 q 0.62627,0 0.62627,0.51333 0,0.51334 -0.6776,0.51334 h -0.97534 v -0.4928 q -0.37987,0.35933 -0.68787,0.4928 -0.29773,0.13347 -0.71867,0.13347 -0.81107,0 -1.3244,-0.45174 -0.50307,-0.462 -0.50307,-1.28334 v -1.85827 h -0.2772 q -0.25667,0 -0.41067,-0.14373 -0.154,-0.14374 -0.154,-0.3696 0,-0.29774 0.17454,-0.4004 0.17453,-0.11294 0.50306,-0.11294 h 1.19094 v 2.85414 q 0,0.73921 0.90347,0.73921 0.39014,0 0.6468,-0.13347 0.25667,-0.14373 0.65707,-0.56467 v -1.86854 h -0.35933 z"
     id="path46889" /><path
     d="m 245.8655,138.63995 q 0.67761,0 0.67761,0.51333 0,0.51334 -0.67761,0.51334 h -1.19093 v -0.35934 q -0.73921,0.50307 -1.55028,0.50307 -1.14987,0 -1.848,-0.68787 -0.68787,-0.68786 -0.68787,-1.70427 0,-1.0164 0.68787,-1.694 0.69813,-0.68787 1.85827,-0.68787 0.8932,0 1.54001,0.51333 v -1.2628 h -0.16427 q -0.32854,0 -0.50307,-0.10267 -0.17453,-0.11293 -0.17453,-0.41067 0,-0.28746 0.17453,-0.39013 0.17453,-0.11293 0.50307,-0.11293 h 1.19094 v 5.36948 z m -1.19093,-1.2012 q 0,-0.61601 -0.42094,-0.99587 -0.42093,-0.37987 -1.11907,-0.37987 -0.68787,0 -1.1088,0.4004 -0.41067,0.39013 -0.41067,0.9548 0,0.5852 0.42093,0.97534 0.43121,0.39013 1.10881,0.39013 0.6776,0 1.09853,-0.37986 0.43121,-0.39014 0.43121,-0.96507 z"
     id="path46891" /><path
     d="m 248.65804,138.29088 h 1.35521 l -1.44761,2.75148 q -0.1232,0.2464 -0.32853,0.2464 -0.13347,0 -0.22587,-0.0924 -0.0924,-0.0821 -0.0924,-0.19507 0,-0.0821 0.0308,-0.19507 z"
     id="path46893" /><path
     d="m 262.32299,139.15328 q 0,-0.29773 0.17453,-0.4004 0.17454,-0.11293 0.50307,-0.11293 h 0.23614 l -0.23614,-0.59547 h -2.44347 l -0.23614,0.59547 h 0.23614 q 0.6776,0 0.6776,0.51333 0,0.51334 -0.6776,0.51334 h -1.36547 q -0.67761,0 -0.67761,-0.51334 0,-0.308 0.1848,-0.41066 0.17454,-0.10267 0.50307,-0.10267 l 1.59134,-3.93215 h -0.6468 q -0.68787,0 -0.68787,-0.51333 0,-0.308 0.17453,-0.41067 0.1848,-0.10267 0.51334,-0.10267 h 2.21761 l 2.04307,4.95882 q 0.69814,0 0.69814,0.51333 0,0.51334 -0.67761,0.51334 h -1.42707 q -0.6776,0 -0.6776,-0.51334 z m 0.25667,-2.13547 -0.80081,-1.97121 -0.81106,1.97121 z"
     id="path46895" /><path
     d="m 265.80338,139.66662 q -0.6776,0 -0.6776,-0.51334 0,-0.51333 0.6776,-0.51333 h 0.0616 v -2.43321 q -0.62626,-0.0205 -0.62626,-0.51333 0,-0.51334 0.68787,-0.51334 h 0.96506 v 0.4928 q 0.36961,-0.34906 0.67761,-0.48253 0.308,-0.14374 0.72893,-0.14374 0.80081,0 1.31414,0.45174 0.51334,0.45173 0.51334,1.27307 v 1.86854 q 0.62626,0 0.62626,0.51333 0,0.51334 -0.6776,0.51334 h -0.91373 q -0.68787,0 -0.68787,-0.51334 0,-0.51333 0.62627,-0.51333 v -1.82747 q 0,-0.73921 -0.92401,-0.73921 -0.35933,0 -0.6468,0.154 -0.2772,0.15401 -0.63654,0.54414 v 1.86854 h 0.0616 q 0.6776,0 0.6776,0.51333 0,0.51334 -0.6776,0.51334 z"
     id="path46897" /><path
     d="m 271.84019,141.71996 q -0.308,0 -0.44147,-0.16427 -0.13347,-0.154 -0.13347,-0.34907 0,-0.51333 0.6776,-0.51333 h 1.02667 l 0.56467,-1.05747 -1.76587,-3.42908 q -0.50307,-0.0616 -0.50307,-0.51333 0,-0.51334 0.6776,-0.51334 h 0.92401 q 0.32853,0 0.50307,0.11294 0.17453,0.10266 0.17453,0.4004 0,0.4928 -0.60574,0.51333 l 1.17041,2.28948 1.232,-2.28948 q -0.65707,0 -0.65707,-0.51333 0,-0.51334 0.68787,-0.51334 h 0.94454 q 0.32853,0 0.50307,0.11294 0.17453,0.10266 0.17453,0.4004 0,0.462 -0.53387,0.51333 l -2.36134,4.48655 h 0.0513 q 0.32853,0 0.50306,0.10267 0.17454,0.11293 0.17454,0.41066 0,0.51334 -0.6776,0.51334 h -2.20735 z"
     id="path46899" /><path
     d="m 287.41474,139.66662 q -0.6776,0 -0.6776,-0.51334 0,-0.51333 0.6776,-0.51333 h 0.154 v -1.44761 h -2.19707 v 1.44761 h 0.154 q 0.6776,0 0.6776,0.51333 0,0.51334 -0.6776,0.51334 h -1.24227 q -0.67761,0 -0.67761,-0.51334 0,-0.29773 0.17454,-0.4004 0.17453,-0.11293 0.50307,-0.11293 h 0.0616 v -3.93215 q -0.53387,-0.0513 -0.53387,-0.51333 0,-0.29774 0.17453,-0.4004 0.17454,-0.11294 0.50307,-0.11294 h 1.03694 q 0.6776,0 0.6776,0.51334 0,0.51333 -0.6776,0.51333 h -0.154 v 1.45787 h 2.19707 v -1.45787 h -0.154 q -0.6776,0 -0.6776,-0.51333 0,-0.29774 0.17453,-0.4004 0.17453,-0.11294 0.50307,-0.11294 h 1.03694 q 0.6776,0 0.6776,0.51334 0,0.462 -0.53387,0.51333 v 3.93215 h 0.0616 q 0.6776,0 0.6776,0.51333 0,0.51334 -0.6776,0.51334 z"
     id="path46901" /><path
     d="m 295.11475,133.68113 q 0.6776,0 0.6776,0.51334 0,0.4312 -0.48253,0.51333 l -0.61601,4.95882 h -1.12933 l -0.95481,-2.84388 -0.93427,2.84388 h -1.1396 l -0.63654,-4.95882 q -0.47226,-0.0616 -0.47226,-0.4928 0,-0.308 0.16426,-0.42093 0.17454,-0.11294 0.51334,-0.11294 h 1.34494 q 0.68786,0 0.68786,0.51334 0,0.51333 -0.68786,0.51333 h -0.49281 l 0.36961,2.79255 0.78026,-2.32028 h 1.06774 l 0.78027,2.32028 0.35934,-2.79255 h -0.54414 q -0.6776,0 -0.6776,-0.51333 0,-0.29774 0.17453,-0.4004 0.17454,-0.11294 0.50307,-0.11294 z"
     id="path46903" /><path
     d="m 297.93807,138.29088 h 1.35521 l -1.44761,2.75148 q -0.1232,0.2464 -0.32853,0.2464 -0.13347,0 -0.22587,-0.0924 -0.0924,-0.0821 -0.0924,-0.19507 0,-0.0821 0.0308,-0.19507 z"
     id="path46905" /><path
     d="m 311.60302,139.15328 q 0,-0.29773 0.17453,-0.4004 0.17454,-0.11293 0.50307,-0.11293 h 0.23614 l -0.23614,-0.59547 h -2.44347 l -0.23614,0.59547 h 0.23614 q 0.6776,0 0.6776,0.51333 0,0.51334 -0.6776,0.51334 h -1.36547 q -0.67761,0 -0.67761,-0.51334 0,-0.308 0.1848,-0.41066 0.17454,-0.10267 0.50307,-0.10267 l 1.59134,-3.93215 h -0.6468 q -0.68787,0 -0.68787,-0.51333 0,-0.308 0.17453,-0.41067 0.1848,-0.10267 0.51334,-0.10267 h 2.21761 l 2.04307,4.95882 q 0.69813,0 0.69813,0.51333 0,0.51334 -0.6776,0.51334 h -1.42707 q -0.6776,0 -0.6776,-0.51334 z m 0.25667,-2.13547 -0.80081,-1.97121 -0.81107,1.97121 z"
     id="path46907" /><path
     d="m 315.08341,139.66662 q -0.6776,0 -0.6776,-0.51334 0,-0.51333 0.6776,-0.51333 h 0.0616 v -2.43321 q -0.62626,-0.0205 -0.62626,-0.51333 0,-0.51334 0.68786,-0.51334 h 0.96507 v 0.4928 q 0.36961,-0.34906 0.67761,-0.48253 0.308,-0.14374 0.72893,-0.14374 0.8008,0 1.31414,0.45174 0.51333,0.45173 0.51333,1.27307 v 1.86854 q 0.62627,0 0.62627,0.51333 0,0.51334 -0.6776,0.51334 h -0.91374 q -0.68786,0 -0.68786,-0.51334 0,-0.51333 0.62626,-0.51333 v -1.82747 q 0,-0.73921 -0.924,-0.73921 -0.35933,0 -0.6468,0.154 -0.2772,0.15401 -0.63654,0.54414 v 1.86854 h 0.0616 q 0.67761,0 0.67761,0.51333 0,0.51334 -0.67761,0.51334 z"
     id="path46909" /><path
     d="m 321.12022,141.71996 q -0.308,0 -0.44147,-0.16427 -0.13347,-0.154 -0.13347,-0.34907 0,-0.51333 0.6776,-0.51333 h 1.02667 l 0.56467,-1.05747 -1.76587,-3.42908 q -0.50307,-0.0616 -0.50307,-0.51333 0,-0.51334 0.6776,-0.51334 h 0.92401 q 0.32853,0 0.50307,0.11294 0.17453,0.10266 0.17453,0.4004 0,0.4928 -0.60574,0.51333 l 1.17041,2.28948 1.232,-2.28948 q -0.65707,0 -0.65707,-0.51333 0,-0.51334 0.68787,-0.51334 h 0.94454 q 0.32853,0 0.50307,0.11294 0.17453,0.10266 0.17453,0.4004 0,0.462 -0.53387,0.51333 l -2.36134,4.48655 h 0.0513 q 0.32854,0 0.50307,0.10267 0.17454,0.11293 0.17454,0.41066 0,0.51334 -0.67761,0.51334 h -2.20734 z"
     id="path46911" /><path
     d="m 338.23477,133.68113 q 0.67761,0 0.67761,0.51334 0,0.4312 -0.48254,0.51333 l -0.616,4.95882 h -1.12934 l -0.9548,-2.84388 -0.93427,2.84388 h -1.1396 l -0.63654,-4.95882 q -0.47227,-0.0616 -0.47227,-0.4928 0,-0.308 0.16427,-0.42093 0.17453,-0.11294 0.51333,-0.11294 h 1.34494 q 0.68787,0 0.68787,0.51334 0,0.51333 -0.68787,0.51333 h -0.4928 l 0.3696,2.79255 0.78027,-2.32028 h 1.06774 l 0.78027,2.32028 0.35933,-2.79255 h -0.54413 q -0.67761,0 -0.67761,-0.51333 0,-0.29774 0.17454,-0.4004 0.17453,-0.11294 0.50307,-0.11294 z"
     id="path46913" /><path
     d="m 341.9205,135.0466 q 1.08827,0 1.84801,0.69814 0.77,0.69814 0.77,1.69401 0,1.00613 -0.77,1.70427 -0.77,0.68787 -1.87881,0.68787 -1.1088,0 -1.8788,-0.68787 -0.77001,-0.69814 -0.77001,-1.70427 0,-1.01641 0.77001,-1.70428 0.77,-0.68787 1.9096,-0.68787 z m -0.0103,1.02667 q -0.69814,0 -1.17041,0.39014 -0.47227,0.39013 -0.47227,0.97534 0,0.57493 0.46201,0.97533 0.47226,0.39014 1.16013,0.39014 0.68787,0 1.14987,-0.39014 0.47227,-0.4004 0.47227,-0.97533 0,-0.57494 -0.47227,-0.96507 -0.462,-0.40041 -1.12933,-0.40041 z"
     id="path46915" /><path
     d="m 349.53838,135.05687 q 0.4312,0 0.8624,0.26694 0.4312,0.26693 0.4312,0.60573 0,0.2156 -0.154,0.3696 -0.154,0.154 -0.35933,0.154 -0.17454,0 -0.4004,-0.1848 -0.22587,-0.1848 -0.40041,-0.1848 -0.2464,0 -0.60573,0.22587 -0.34907,0.2156 -1.08827,0.82133 v 1.50921 h 1.42707 q 0.68787,0 0.68787,0.51333 0,0.51334 -0.68787,0.51334 h -3.04921 q -0.6776,0 -0.6776,-0.51334 0,-0.29773 0.17453,-0.4004 0.17454,-0.11293 0.50307,-0.11293 h 0.59547 v -2.43321 h -0.35934 q -0.6776,0 -0.6776,-0.51333 0,-0.51334 0.6776,-0.51334 h 1.38601 v 0.66734 q 0.616,-0.462 0.97534,-0.62627 0.35933,-0.16427 0.7392,-0.16427 z"
     id="path46917" /><path
     d="m 356.30412,138.63995 q 0.68787,0 0.68787,0.51333 0,0.51334 -0.68787,0.51334 h -1.21147 q -0.67761,0 -0.67761,-0.51334 0,-0.20533 0.16427,-0.37986 l -1.05747,-0.93427 -0.1848,0.14373 v 1.68374 h -1.19094 q -0.6776,0 -0.6776,-0.51334 0,-0.29773 0.17453,-0.4004 0.17454,-0.11293 0.50307,-0.11293 h 0.16427 v -4.34281 h -0.16427 q -0.32853,0 -0.50307,-0.10267 -0.17453,-0.11294 -0.17453,-0.41067 0,-0.51333 0.6776,-0.51333 h 1.19094 v 3.44961 l 0.81107,-0.64681 q -0.16427,-0.19506 -0.16427,-0.37986 0,-0.51334 0.68787,-0.51334 h 1.14987 q 0.3388,0 0.50307,0.11294 0.17453,0.11293 0.17453,0.4004 0,0.51333 -0.6776,0.51333 h -0.28747 l -1.21147,0.9856 1.64268,1.44761 z"
     id="path46919" /><path
     d="m 358.36771,133.7838 q 0,-0.29773 0.17453,-0.4004 0.17453,-0.11293 0.51334,-0.11293 h 1.82747 v 5.36948 h 1.25254 q 0.6776,0 0.6776,0.51333 0,0.51334 -0.6776,0.51334 h -3.53175 q -0.6776,0 -0.6776,-0.51334 0,-0.29773 0.17453,-0.4004 0.17454,-0.11293 0.50307,-0.11293 h 1.25254 v -4.34281 h -0.8008 q -0.68787,0 -0.68787,-0.51334 z"
     id="path46921" /><path
     d="m 366.56052,135.0466 q 1.08827,0 1.848,0.69814 0.77001,0.69814 0.77001,1.69401 0,1.00613 -0.77001,1.70427 -0.77,0.68787 -1.8788,0.68787 -1.10881,0 -1.87881,-0.68787 -0.77,-0.69814 -0.77,-1.70427 0,-1.01641 0.77,-1.70428 0.77,-0.68787 1.90961,-0.68787 z m -0.0103,1.02667 q -0.69814,0 -1.1704,0.39014 -0.47227,0.39013 -0.47227,0.97534 0,0.57493 0.462,0.97533 0.47227,0.39014 1.16014,0.39014 0.68787,0 1.14987,-0.39014 0.47227,-0.4004 0.47227,-0.97533 0,-0.57494 -0.47227,-0.96507 -0.462,-0.40041 -1.12934,-0.40041 z"
     id="path46923" /><path
     d="m 370.04091,138.44488 q 0,-0.69813 0.68787,-1.21147 0.68787,-0.5236 1.79667,-0.5236 0.462,0 1.06774,0.10267 v -0.23614 q 0,-0.50307 -0.9548,-0.50307 -0.42094,0 -0.95481,0.1232 -0.53386,0.11294 -0.6468,0.11294 -0.2156,0 -0.35933,-0.14374 -0.14374,-0.154 -0.14374,-0.37986 0,-0.32854 0.308,-0.4312 0.87267,-0.30801 1.76588,-0.30801 0.94453,0 1.4784,0.40041 0.54414,0.4004 0.54414,1.11907 v 2.07387 h 0.16426 q 0.67761,0 0.67761,0.51333 0,0.51334 -0.67761,0.51334 h -1.2012 v -0.23613 q -0.77,0.4004 -1.70427,0.4004 -0.75974,0 -1.30387,-0.4004 -0.54414,-0.41067 -0.54414,-0.98561 z m 3.56255,-0.16427 v -0.51333 q -0.64681,-0.11293 -1.13961,-0.11293 -0.5236,0 -0.93427,0.22586 -0.4004,0.22587 -0.4004,0.52361 0,0.17453 0.22587,0.28746 0.22587,0.11294 0.5544,0.11294 0.84187,0 1.69401,-0.52361 z"
     id="path46925" /><path
     d="m 381.3856,138.63995 q 0.6776,0 0.6776,0.51333 0,0.51334 -0.6776,0.51334 h -1.19094 v -0.35934 q -0.7392,0.50307 -1.55027,0.50307 -1.14987,0 -1.84801,-0.68787 -0.68786,-0.68786 -0.68786,-1.70427 0,-1.0164 0.68786,-1.694 0.69814,-0.68787 1.85828,-0.68787 0.8932,0 1.54,0.51333 v -1.2628 h -0.16427 q -0.32853,0 -0.50306,-0.10267 -0.17454,-0.11293 -0.17454,-0.41067 0,-0.28746 0.17454,-0.39013 0.17453,-0.11293 0.50306,-0.11293 h 1.19094 v 5.36948 z m -1.19094,-1.2012 q 0,-0.61601 -0.42093,-0.99587 -0.42094,-0.37987 -1.11907,-0.37987 -0.68787,0 -1.10881,0.4004 -0.41066,0.39013 -0.41066,0.9548 0,0.5852 0.42093,0.97534 0.4312,0.39013 1.1088,0.39013 0.67761,0 1.09854,-0.37986 0.4312,-0.39014 0.4312,-0.96507 z"
     id="path46927" /></g></svg>
