<?xml version="1.0" encoding="UTF-8" standalone="no"?>
<svg
   xmlns:dc="http://purl.org/dc/elements/1.1/"
   xmlns:cc="http://creativecommons.org/ns#"
   xmlns:rdf="http://www.w3.org/1999/02/22-rdf-syntax-ns#"
   xmlns:svg="http://www.w3.org/2000/svg"
   xmlns="http://www.w3.org/2000/svg"
   viewBox="0 0 838 869"
   height="869"
   width="838"
   id="svg3825"
   version="1.1">
  <metadata
     id="metadata3831">
    <rdf:RDF>
      <cc:Work
         rdf:about="">
        <dc:format>image/svg+xml</dc:format>
        <dc:type
           rdf:resource="http://purl.org/dc/dcmitype/StillImage" />
        <dc:title></dc:title>
      </cc:Work>
    </rdf:RDF>
  </metadata>
  <defs
     id="defs3829" />
  <path
     id="path3835"
     d="m 220.58323,847.51661 c -8.89088,-3.16795 -11.90192,-10.88435 -7.30683,-18.72528 4.00367,-6.83174 13.88057,-12.88044 37.2236,-22.79608 18.99317,-8.0679 38.07822,-17.66676 60,-30.17711 12.1,-6.90524 28.75,-16.27504 37,-20.82178 17.17895,-9.46766 27.13763,-15.76918 43.71376,-27.66057 14.15649,-10.1556 27.64745,-18.25447 44.02799,-26.43079 6.74204,-3.36528 17.30853,-9.46829 23.48109,-13.56224 13.51764,-8.96559 20.01417,-11.9971 35.81058,-16.71051 25.77435,-7.69066 53.34636,-21.23753 83.99527,-41.26914 25.24721,-16.50115 40.16816,-24.79082 58.47131,-32.48505 7.975,-3.35251 25.525,-11.04629 39,-17.09729 38.78824,-17.41801 51.50076,-22.11544 68.53628,-25.32498 24.00568,-4.52273 43.39048,3.6795 29.22637,12.36647 -1.79446,1.10055 -10.01265,4.3248 -18.26265,7.165 -19.44654,6.69479 -62.57549,25.74345 -111,49.02512 -8.91643,4.28687 -39.09368,21.93162 -59,34.49753 -19.24898,12.15096 -29.18392,17.52727 -49.0186,26.52649 -17.66235,8.0136 -56.40464,27.53707 -69.9814,35.26584 -3.85,2.19167 -12.85,8.14521 -20,13.23009 -7.15,5.08487 -19.3,12.97212 -27,17.52722 -7.7,4.5551 -20.3,12.18514 -28,16.95565 -13.96712,8.65327 -21.65277,12.956 -58.5,32.75066 -23.11115,12.41551 -37.23778,20.3954 -53.35826,30.14117 -18.61963,11.25663 -25.90964,14.56633 -38.64174,17.5435 -8.02308,1.87605 -15.27123,1.89951 -20.41677,0.0661 z m 54.73438,-307.45435 c -6.0971,-2.19488 -12.75121,-6.49959 -23.98978,-15.51959 -9.77686,-7.84684 -14.38434,-12.92771 -23.16286,-25.54267 -3.63598,-5.225 -10.08785,-14.19932 -14.33749,-19.94292 -4.24964,-5.74361 -10.0865,-14.74361 -12.97081,-20 -2.88432,-5.2564 -11.0849,-19.00708 -18.22353,-30.55708 -15.80735,-25.57563 -19.22374,-31.8727 -24.95671,-46 -2.45513,-6.05 -8.30294,-19.34079 -12.99512,-29.53508 -4.69218,-10.1943 -9.95093,-22.1193 -11.6861,-26.5 -1.73517,-4.38071 -6.21103,-14.48992 -9.94635,-22.46492 -3.73533,-7.975 -9.14398,-21.25 -12.01924,-29.5 -11.849142,-33.99893 -23.32294,-59.27321 -30.565058,-67.32819 -4.24825,-4.72508 -5.11535,-5.24438 -8.305126,-4.97386 -6.268922,0.53165 -7.166586,3.44426 -9.289527,30.1413 -1.620181,20.37459 -1.722249,27.13054 -0.848463,56.16075 1.1759,39.06749 2.432867,57.00261 5.0586,72.17894 1.471378,8.50434 1.904106,15.44269 1.808657,29 -0.131327,18.65321 0.03767,19.82487 5.223738,36.21551 5.555932,17.55962 4.741757,32.09751 -2.185533,39.0248 C 64.457954,472.3882 53.472381,469.6669 48.031625,459 c -2.990817,-5.86366 -4.090467,-13.57748 -5.060737,-35.5 -0.511192,-11.55 -1.39368,-24.825 -1.961085,-29.5 -0.567405,-4.675 -1.021925,-24.1876 -1.010044,-43.36133 0.01188,-19.17373 -0.424903,-43.02373 -0.97063,-53 C 37.100676,262.38522 36.980923,229.72581 38.718783,213 c 1.141475,-10.98598 1.637888,-26.1298 1.704554,-52 0.100054,-38.82657 0.366553,-41.39889 5.144252,-49.65395 C 48.294733,106.634 54.578837,103 60,103 c 5.112532,0 11.496716,3.605 16.53974,9.33962 8.777965,9.98175 22.82801,42.67882 29.93331,69.66038 2.3898,9.075 6.15075,21.30465 8.35767,27.17701 2.20691,5.87235 5.84278,17.23183 8.0797,25.24329 2.27586,8.15093 6.76204,20.62508 10.18602,28.32299 3.36538,7.56619 8.31521,20.16973 10.99961,28.00787 2.68441,7.83814 8.1897,21.33814 12.23399,30 4.04429,8.66186 9.68326,21.59884 12.53105,28.74884 2.84779,7.15 7.65086,17.5 10.67349,23 3.02263,5.5 9.06534,17.2 13.42824,26 9.24638,18.65004 16.37273,30.90822 25.77971,44.34426 3.71661,5.30845 9.11372,13.38348 11.99357,17.94452 11.12323,17.61663 25.06033,34.13506 33.20968,39.36053 9.06856,5.81488 16.14797,3.07679 17.63201,-6.81948 1.02428,-6.83039 -3.10517,-50.20529 -7.10953,-74.67702 -1.33621,-8.16595 -2.90512,-21.89095 -3.48647,-30.5 -0.58135,-8.60904 -1.69541,-20.82781 -2.47568,-27.15281 -2.29555,-18.60797 -5.33654,-56.25476 -5.93711,-73.5 -0.30646,-8.8 -1.33024,-21.4 -2.27508,-28 -3.06964,-21.44256 -2.30556,-117.43758 1.22181,-153.5 0.83385,-8.525 2.38985,-27.425 3.45778,-42 1.06794,-14.575 2.41755,-28.135424 2.99914,-30.134275 2.27863,-7.831257 8.44133,-12.417312 15.60173,-11.610231 7.94148,0.89512 13.40575,7.112438 15.40242,17.525061 1.11982,5.839923 -0.543,51.670638 -2.13046,58.719445 -0.61932,2.75 -3.35048,9.4538 -6.06925,14.89734 -6.25039,12.51461 -7.47895,18.41711 -8.9462,42.98139 -0.92878,15.54932 -0.91735,25.13214 0.0525,44 0.68193,13.2667 1.67045,26.82127 2.19673,30.12127 0.53221,3.33713 0.67641,13.32288 0.32492,22.5 -0.54305,14.17861 -0.26874,19.52485 1.94974,38 1.41994,11.825 3.74039,32.75 5.15657,46.5 1.41617,13.75 3.9022,36.7 5.5245,51 1.62231,14.3 3.41028,31.175 3.97327,37.5 1.31733,14.79984 3.30666,26.4073 7.1011,41.43389 4.61133,18.26162 4.75837,23.10575 1.0977,36.16334 -1.68112,5.99652 -3.58916,13.60277 -4.24009,16.90277 -2.25877,11.45116 -5.36052,16.32973 -12.4678,19.60996 -5.06982,2.33987 -10.59259,2.32454 -17.18239,-0.0477 z M 805,522.0309 c -3.575,-0.99356 -11.675,-3.62121 -18,-5.83923 -6.325,-2.21801 -16.45,-5.5956 -22.5,-7.50577 -6.78385,-2.14186 -20.7738,-8.25943 -36.5,-15.96084 -22.7458,-11.13904 -26.9041,-13.5655 -38.5,-22.46559 -24.18264,-18.56067 -32.00817,-19.85544 -35.53177,-5.87892 -3.09309,12.26889 -7.48884,18.79632 -13.96451,20.73648 -7.43974,2.229 -15.14607,-1.11836 -19.92567,-8.65501 -4.46239,-7.03646 -6.89156,-18.14971 -9.63743,-44.09039 -1.38978,-13.1294 -3.92377,-30.62163 -5.6311,-38.87163 -2.92853,-14.15091 -3.09388,-16.13212 -2.92107,-35 0.10075,-11 -0.28001,-24.3916 -0.84613,-29.75911 -1.05023,-9.95751 -6.03308,-78.12919 -8.02125,-109.74089 -2.27098,-36.10848 -3.17801,-45.04709 -6.69719,-66 -5.88092,-35.01441 -5.0735,-47.47628 3.58271,-55.296649 10.70005,-9.666852 23.81352,-2.057823 27.02476,15.680999 1.84307,10.18107 3.04928,28.1699 3.09221,46.11565 0.0647,27.02256 2.66855,77.02696 4.47833,86 0.88743,4.4 2.44152,14.69353 3.45353,22.87452 1.99011,16.08787 3.51148,19.85623 8.24716,20.42778 3.78417,0.45672 10.27848,-5.07434 18.60719,-15.8473 17.11411,-22.13667 21.23671,-26.78141 31.20595,-35.1583 16.86877,-14.17439 30.61304,-20.10969 41.28749,-17.82952 10.1883,2.17633 15.33383,7.55112 18.29515,19.1103 2.82735,11.03623 0.23379,25.68089 -8.1921,46.25699 -4.69671,11.46943 -23.8617,49.38322 -33.44591,66.16553 -3.141,5.5 -9.46623,17.33742 -14.05607,26.30538 -7.64528,14.93791 -8.37771,16.88136 -8.73322,23.17313 -0.32691,5.78551 0.0208,7.7609 2.20682,12.5357 4.59293,10.03228 15.40034,22.07673 29.47738,32.85142 10.17397,7.78724 34.47932,24.24649 42.64474,28.87843 56.58533,32.09873 59.50078,33.92299 62.0296,38.81318 4.11734,7.96206 -0.95548,11.19033 -12.5296,7.97366 z M 664.72686,364.75 c 17.76066,-16.62944 56.52694,-80.01599 57.96821,-94.78356 0.48492,-4.96857 0.26372,-5.86196 -2.1664,-8.75 -3.35606,-3.98845 -6.91445,-4.18125 -14.23815,-0.77145 -17.52443,8.1591 -31.27622,23.41491 -43.31744,48.05501 -5.98494,12.24705 -9.24006,22.12058 -11.35841,34.45257 -2.2926,13.34645 -2.14715,21.10077 0.45791,24.41257 3.18252,4.04591 6.20785,3.4207 12.65428,-2.61514 z M 382.14677,481.83539 C 372.3619,480.11286 365.8348,473.73869 361.43024,461.60425 358.68652,454.0454 352.5746,424.68643 350.8955,411 c -1.77053,-14.43162 -1.58774,-48.10273 0.35015,-64.5 0.91002,-7.7 1.92808,-17.375 2.26237,-21.5 1.47857,-18.24492 5.65723,-55.156 7.01894,-62 3.07484,-15.45415 11.28208,-26.55523 21.43321,-28.99044 4.29597,-1.03059 5.4261,-0.93228 9.37788,0.81578 7.46417,3.30175 10.44165,9.97482 8.55562,19.17466 -0.62015,3.025 -3.11013,10.83613 -5.5333,17.35807 -10.36803,27.90545 -14.63619,50.74063 -16.38128,87.64193 -0.53321,11.275 -1.23298,22.31418 -1.55506,24.53151 -0.91232,6.28092 1.46109,41.71864 3.18224,47.51439 2.00815,6.76218 8.20733,13.55755 13.723,15.04276 2.38825,0.64309 6.66821,0.82333 10.30429,0.43394 5.5789,-0.59745 6.32986,-0.45947 7.29288,1.33994 2.59211,4.84341 0.41122,17.00663 -4.33539,24.17924 -4.72612,7.14165 -15.34386,11.39565 -24.44428,9.79361 z m 128.96556,-3.41594 C 492.91985,473.52688 478.41107,458.7604 464.49495,430.97408 461.33436,424.66334 456.67177,415.9 454.13364,411.5 l -4.61478,-8 -1.0186,-21.5 c -1.20269,-25.38548 -0.56405,-34.03651 3.37975,-45.7819 3.76868,-11.22387 20.08502,-45.00508 27.55576,-57.05122 17.72762,-28.58478 43.75383,-42.20308 62.7901,-32.85514 6.51123,3.1974 9.74861,7.07913 10.48541,12.57234 1.06721,7.95665 -3.99608,13.09124 -18.3759,18.63464 -9.12869,3.51909 -10.41524,4.37315 -17.90558,11.8864 -8.61945,8.64581 -19.21256,23.16192 -24.29749,33.2957 -5.68598,11.33162 -7.57535,20.14536 -7.56695,35.29918 0.009,15.68366 1.47513,23.70126 8.10102,44.29176 5.58314,17.35006 12.14923,30.31496 19.22209,37.95449 8.31891,8.98541 13.80643,10.92443 23.10333,8.16354 4.77959,-1.41938 6.76783,-2.98913 17.27377,-13.63787 8.50725,-8.6229 12.17885,-11.7275 12.95336,-10.95299 1.61082,1.61082 1.16494,15.00439 -0.75992,22.82704 -4.36272,17.73014 -14.33885,27.75554 -31.68985,31.84639 -7.77647,1.83346 -14.65432,1.8103 -21.65683,-0.0729 z"
     style="fill:#000000" />
</svg>
