<?xml version="1.0" encoding="UTF-8" standalone="no"?>
<!DOCTYPE svg PUBLIC "-//W3C//DTD SVG 1.1//EN" "http://www.w3.org/Graphics/SVG/1.1/DTD/svg11.dtd">
<svg width="100%" height="100%" viewBox="0 0 256 183" version="1.1" xmlns="http://www.w3.org/2000/svg" xmlns:xlink="http://www.w3.org/1999/xlink" xml:space="preserve" xmlns:serif="http://www.serif.com/" style="fill-rule:evenodd;clip-rule:evenodd;stroke-linejoin:round;stroke-miterlimit:1.41421;">
    <g transform="matrix(1,0,0,1,-286,0)">
        <g id="logo_on_light__vertical_color" transform="matrix(1.10029,0,0,0.826755,1160.2,-386.087)">
            <rect x="-794.524" y="466.991" width="232.667" height="221.347" style="fill:none;"/>
            <clipPath id="_clip1">
                <rect x="-794.524" y="466.991" width="232.667" height="221.347"/>
            </clipPath>
            <g clip-path="url(#_clip1)">
                <g transform="matrix(0.900249,0,0,1.19809,-1596.74,910.474)">
                    <g transform="matrix(1.65888,0,0,1.65888,910.229,-210.599)">
                        <path d="M0,1.04C4.683,1.04 8.165,-1.321 8.165,-5.364L8.165,-5.444C8.165,-9.206 5.203,-11.567 0.12,-11.567L-9.445,-11.567L-9.445,1.04L0,1.04ZM-11.527,-13.488L0.24,-13.488C3.682,-13.488 6.444,-12.408 8.125,-10.727C9.445,-9.406 10.246,-7.525 10.246,-5.524L10.246,-5.444C10.246,-0.761 6.764,1.921 2.041,2.561L11.286,14.528L8.645,14.528L-0.28,2.921L-0.36,2.921L-9.445,2.921L-9.445,14.528L-11.527,14.528L-11.527,-13.488Z" style="fill:rgb(5,0,0);"/>
                    </g>
                    <g transform="matrix(1.65888,0,0,1.65888,931.736,-209.87)">
                        <path d="M0,0.16L0,0.08C0,-7.885 6.003,-14.408 14.609,-14.408C19.891,-14.408 23.053,-12.647 25.655,-10.086L21.732,-5.563C19.571,-7.524 17.37,-8.725 14.568,-8.725C9.846,-8.725 6.443,-4.803 6.443,0L6.443,0.08C6.443,4.883 9.766,8.885 14.568,8.885C17.77,8.885 19.731,7.604 21.933,5.603L25.855,9.565C22.973,12.647 19.771,14.568 14.368,14.568C6.123,14.568 0,8.205 0,0.16" style="fill:rgb(5,0,0);"/>
                    </g>
                    <g transform="matrix(1.65888,0,0,1.65888,978.806,-186.499)">
                        <path d="M0,-28.016L6.163,-28.016L6.163,-5.603L20.132,-5.603L20.132,0L0,0L0,-28.016Z" style="fill:rgb(5,0,0);"/>
                    </g>
                    <g transform="matrix(1.65888,0,0,1.65888,1049.91,-209.87)">
                        <path d="M0,0.16L0,0.08C0,-4.723 -3.521,-8.725 -8.485,-8.725C-13.447,-8.725 -16.89,-4.803 -16.89,0L-16.89,0.08C-16.89,4.883 -13.368,8.885 -8.404,8.885C-3.442,8.885 0,4.963 0,0.16M-23.333,0.16L-23.333,0.08C-23.333,-7.885 -17.049,-14.408 -8.404,-14.408C0.241,-14.408 6.444,-7.965 6.444,0L6.444,0.08C6.444,8.045 0.16,14.568 -8.485,14.568C-17.13,14.568 -23.333,8.125 -23.333,0.16" style="fill:rgb(5,0,0);"/>
                    </g>
                    <g transform="matrix(1.65888,0,0,1.65888,1065.7,-186.499)">
                        <path d="M0,-28.016L5.684,-28.016L18.811,-10.766L18.811,-28.016L24.895,-28.016L24.895,0L19.652,0L6.084,-17.81L6.084,0L0,0L0,-28.016Z" style="fill:rgb(5,0,0);"/>
                    </g>
                    <g transform="matrix(1.65888,0,0,1.65888,1114.17,-186.499)">
                        <path d="M0,-28.016L21.132,-28.016L21.132,-22.533L6.123,-22.533L6.123,-16.85L19.331,-16.85L19.331,-11.366L6.123,-11.366L6.123,-5.483L21.332,-5.483L21.332,0L0,0L0,-28.016Z" style="fill:rgb(5,0,0);"/>
                    </g>
                    <g transform="matrix(1.65795,0,0,1.65795,1073.15,-269.57)">
                        <path d="M0,-26.524C-2.206,-30.345 -5.416,-33.225 -9.105,-35.023C-9.577,-32.503 -10.47,-30.019 -11.823,-27.675L-13.958,-23.97C-12.536,-23.18 -11.298,-22.017 -10.425,-20.505C-7.86,-16.063 -9.383,-10.381 -13.826,-7.816C-18.268,-5.251 -23.95,-6.773 -26.515,-11.216L-30.823,-18.666L-37.775,-18.666L-41.251,-12.646L-36.94,-5.197C-31.05,5.004 -18.007,8.499 -7.806,2.609C2.394,-3.28 5.889,-16.323 0,-26.524" style="fill:rgb(112,202,242);"/>
                    </g>
                    <g transform="matrix(1.65795,0,0,1.65795,1037.73,-314.51)">
                        <path d="M0,-30.703C-10.201,-36.592 -23.244,-33.097 -29.133,-22.897C-31.34,-19.076 -32.228,-14.856 -31.941,-10.762C-29.523,-11.613 -26.925,-12.082 -24.218,-12.082L-19.943,-12.086C-19.97,-13.712 -19.581,-15.366 -18.709,-16.877C-16.143,-21.32 -10.462,-22.843 -6.019,-20.277C-1.576,-17.712 -0.054,-12.031 -2.619,-7.588L-6.916,-0.132L-3.441,5.889L3.511,5.888L7.806,-1.57C13.696,-11.77 10.201,-24.814 0,-30.703" style="fill:rgb(180,227,249);"/>
                    </g>
                    <g transform="matrix(1.65795,0,0,1.65795,1009.03,-315.216)">
                        <path d="M0,23.335L-2.142,19.634C-3.537,20.471 -5.163,20.961 -6.908,20.961C-12.039,20.961 -16.198,16.802 -16.198,11.671C-16.198,6.541 -12.039,2.382 -6.908,2.382L1.697,2.376L5.174,-3.644L1.697,-9.664L-6.909,-9.656C-18.688,-9.656 -28.236,-0.107 -28.236,11.671C-28.236,23.45 -18.688,32.999 -6.909,32.999C-2.498,32.999 1.599,31.659 5,29.366C3.054,27.697 1.353,25.678 0,23.335" style="fill:rgb(63,121,173);"/>
                    </g>
                </g>
            </g>
        </g>
    </g>
</svg>
